<svg id="Capa_1" enable-background="new 0 0 511.196 511.196" height="512" viewBox="0 0 511.196 511.196" width="512" xmlns="http://www.w3.org/2000/svg"><g><path d="m40.7 328.174c14.275-14.275 33.012-22.506 54.185-23.804 15.904-.974 29.251-11.912 33.213-27.216 3.133-12.099 9.097-22.609 17.726-31.239 21.282-21.281 53.305-24.166 83.536-8.221l-55.43 53.531c-6.811 1.635-13.269 5.102-18.574 10.408-15.336 15.336-15.336 40.291 0 55.627 15.141 15.142 40.487 15.142 55.627 0 5.194-5.194 8.623-11.493 10.299-18.147l15.141-15.768c6.717-6.994-4.104-17.384-10.819-10.389l-4.821 5.021c-3.722-12.279-13.691-22.298-25.953-26.083l142.277-136.949c6.993-6.718-3.398-17.535-10.392-10.817l-86.066 82.685c-33.538-19.523-76.764-20.174-105.433 8.496-10.399 10.398-17.882 23.568-21.641 38.085-2.329 8.997-10.209 15.428-19.609 16.004-24.884 1.524-46.971 11.265-63.874 28.169-26.104 26.105-34.934 64.669-23.618 103.158 2.687 9.14 17.132 5.092 14.391-4.231-9.744-33.14-2.329-66.157 19.835-88.32zm159.678 18.48c-9.488 9.488-24.926 9.489-34.415 0-9.488-9.488-9.488-24.926 0-34.415 9.291-9.291 25.102-9.312 34.415 0 9.488 9.489 9.488 24.927 0 34.415z"/><path d="m491.298 66.825-46.025-46.025c-3.684-3.008-7.298-2.926-10.842.246l-28.838 31.582c-.453.496-.837 1.051-1.143 1.65l-15.164 29.739-37.319 35.853c-6.993 6.718 3.4 17.536 10.392 10.816l32.856-31.565 17.774 17.774-163.888 171.591c-6.697 6.974 4.073 17.416 10.819 10.39l15.183-15.812c16.441 30.47 13.716 62.81-7.802 84.329-8.629 8.629-19.14 14.593-31.239 17.726-15.3 3.961-26.24 17.304-27.224 33.209-1.29 21.173-9.519 39.912-23.796 54.189-38.024 38.024-100.265 26.857-135.736-8.614-5.171-5.171-9.848-10.817-13.901-16.782-5.452-8.019-17.857.411-12.406 8.432 4.582 6.742 9.865 13.12 15.701 18.957 41.312 41.312 113.053 52.51 156.949 8.614 16.907-16.907 26.646-38.997 28.162-63.876.581-9.398 7.016-17.278 16.011-19.606 14.517-3.759 27.687-11.242 38.085-21.641 28.933-28.933 27.973-72.589 8.025-106.238l142.138-148.943 29.75-15.17c.599-.306 1.154-.69 1.65-1.143l31.582-28.838c3.173-3.546 3.255-7.16.246-10.844zm-41.194 27.92-25.196 12.848-20.403-20.403 12.848-25.196 22.863-25.038 34.926 34.926z"/><path d="m113.21 433.878c3.535 2.929 7.071 2.929 10.606 0l3.383-3.383 5.954 5.954c3.535 2.929 7.071 2.929 10.606 0l18.161-18.161c2.929-2.929 2.929-7.678 0-10.606l-55.613-55.613c-2.929-2.929-7.678-2.929-10.606 0l-18.161 18.161c-2.929 3.535-2.929 7.071 0 10.606l6.123 6.123-3.383 3.383c-6.857 6.857 3.75 17.463 10.606 10.606l3.383-3.383 5.487 5.487-3.383 3.383c-6.857 6.857 3.749 17.463 10.606 10.606l3.383-3.383 6.231 6.231-3.383 3.383c-2.929 2.929-2.929 7.678 0 10.606zm-12.206-65.9 45.007 45.007-7.554 7.555-45.007-45.007z"/><circle cx="449.654" cy="134.72" r="8.925"/><path d="m469.054 110.074c-3.485 3.485-3.485 9.136 0 12.621s9.136 3.485 12.621 0 3.485-9.136 0-12.621-9.136-3.485-12.621 0z"/><path d="m506.941 87.311c-3.485-3.485-9.136-3.485-12.621 0s-3.485 9.136 0 12.621 9.136 3.485 12.621 0 3.485-9.136 0-12.621z"/><path d="m381.146 66.212c3.485-3.485 3.485-9.136 0-12.622-3.485-3.485-9.136-3.485-12.621 0s-3.485 9.136 0 12.622c3.485 3.485 9.136 3.485 12.621 0z"/><path d="m399.481 40.501c3.485-3.485 3.485-9.136 0-12.621s-9.136-3.485-12.621 0-3.485 9.136 0 12.621c3.485 3.486 9.136 3.486 12.621 0z"/><circle cx="415.934" cy="8.925" r="8.925"/></g></svg>