<svg id="Capa_1" enable-background="new 0 0 511.922 511.922" height="512" viewBox="0 0 511.922 511.922" width="512" xmlns="http://www.w3.org/2000/svg"><g><path d="m370.078 154.741-191.101 199.025-28.525-28.525 6.911-6.674c6.974-6.738-3.445-17.527-10.42-10.79l-88.794 75.559c-.203.164-.416.354-.593.532l-16.736 16.734c-2.929 2.929-2.929 7.678 0 10.606l52.664 52.664c3.535 2.929 7.071 2.929 10.606 0l12.065-12.065c14.111 10.091 33.802 18.619 51.006 11.202 33.221-14.327 38.537-40.674 42.419-59.912 4.453-22.073 14.851-34.209 36.749-40.229 9.824-2.701 20.514-7.4 21.31-19.183.861-12.732-13.336-15.429-23.043-17.625-4.716-1.067-9.806-2.222-14.529-3.848l5.483-5.71c9.325 2.906 30.072 8.873 43.328 8.908 21.285-.028 12.837 18.205 3.034 26.927-11.224 9.988-22.236 16.275-33.68 19.223-16.038 4.165-27.503 18.157-28.531 34.822-1.381 22.598-10.159 42.585-25.388 57.805-40.558 40.568-106.856 28.676-144.673-9.141-3.342-3.342-6.519-6.909-9.452-10.613-27.783-34.963-33.164-81.639-13.389-116.147 4.822-8.414-8.192-15.871-13.015-7.458-22.801 39.787-16.909 93.211 14.654 132.929 3.282 4.145 6.847 8.148 10.597 11.897 43.665 43.666 119.492 55.546 165.885 9.142 17.858-17.847 28.146-41.188 29.754-67.493.627-10.165 7.591-18.694 17.315-21.219 13.796-3.554 26.846-10.927 39.895-22.539 9.322-8.294 19.03-20.525 15.577-33.878-3.211-12.418-16.454-19.259-28.562-19.256-8.07-.021-21.152-3.1-31.662-6.078l133.661-139.204c6.716-6.995-4.104-17.383-10.82-10.388zm-271.291 293.222-42.057-42.057 6.128-6.128 42.057 42.057zm142.501-107.271c3.676.831 7.535 1.519 11.039 2.953-1.264 3.107-7.378 4.047-9.973 4.761-27.275 7.499-41.928 24.229-47.476 51.726-3.759 18.626-7.646 37.888-33.655 49.104-14.1 6.075-33.905-7.122-40.573-12.896l-46.676-46.662 15.777-13.136 36.639 36.639c6.857 6.857 17.464-3.75 10.606-10.606l-35.67-35.67 17.174-14.298 34.232 34.232c6.857 6.857 17.464-3.75 10.606-10.606l-33.263-33.263 9.217-7.674 34.489 34.489c2.967 2.967 7.8 2.926 10.713-.109l34.377-35.802c7.416 3.419 15.58 5.272 22.417 6.818z"/><path d="m510.998 18.24c-1.655-4.182-5.28-7.183-9.697-8.027-7.601-1.453-16.485-4.565-23.995-1.326l-65.627 28.276c-4.412 1.902-7.971 5.342-10.021 9.687l-12.94 27.427-177.902 171.812c-7.538-14.264-1.584-34.197 2.115-46.58 6.939-23.224-9.421-38.175-32.813-26.628-30.604 15.059-53.47 46.98-61.521 79.856-2.545 9.712-11.062 16.652-21.208 17.278-21.832 1.344-42.06 8.874-58.496 21.775-7.744 6.077 1.817 17.645 9.262 11.799 14.032-11.014 31.375-17.447 50.157-18.603 16.661-1.027 30.653-12.493 34.818-28.531 7.489-28.654 26.624-56.837 53.621-70.12 10.599-5.233 15.175-2.39 11.81 8.879-4.387 14.685-12.349 41.39 1.198 61.555l-27.483 26.542c-6.992 6.753 3.471 17.501 10.42 10.79l212.128-204.869 19.464 19.464-20.181 21.018c-6.716 6.995 4.104 17.384 10.82 10.389l23.236-24.2c10.132.272 21.377-.968 27.032-10.573l3.663 3.663c6.857 6.857 17.464-3.75 10.606-10.606l-5.341-5.341 6.25-8.599 6.516 6.516c6.857 6.857 17.464-3.75 10.606-10.606l-8.194-8.194 6.25-8.599 9.368 9.368c6.857 6.857 17.464-3.75 10.606-10.606l-11.046-11.046 14.935-20.549c2.647-3.64 3.238-8.309 1.584-12.491zm-27.255 22.3-2.501-2.501c-6.857-6.857-17.464 3.75-10.606 10.606l4.179 4.179-6.25 8.599-5.354-5.354c-6.857-6.857-17.464 3.75-10.606 10.606l7.032 7.032-6.25 8.599-8.207-8.207c-6.857-6.857-17.464 3.75-10.606 10.606l9.885 9.885c-3.157 6.716-10.017 6.826-16.749 6.312l-23.76-23.757 11.273-23.896c.489-1.037 1.338-1.858 2.391-2.312l65.627-28.276c3.088-1.33 9.264.854 12.251 1.712z"/><circle cx="156.732" cy="262.078" r="8.41"/><path d="m161.56 246.213c.787.262 1.586.387 2.373.387 3.14 0 6.066-1.988 7.114-5.13l5.547-16.642c1.31-3.93-.814-8.177-4.744-9.487-3.929-1.311-8.177.814-9.487 4.744l-5.547 16.642c-1.31 3.928.814 8.176 4.744 9.486z"/></g></svg>