<svg id="Capa_1" enable-background="new 0 0 511.574 511.574" height="512" viewBox="0 0 511.574 511.574" width="512" xmlns="http://www.w3.org/2000/svg"><g><path d="m95.037 358.576c-13.309 13.309-13.309 34.963 0 48.271l16.34 16.34c6.654 6.654 15.395 9.981 24.136 9.981s17.481-3.327 24.136-9.981c2.929-2.929 2.929-7.678 0-10.606l-54.005-54.005c-2.93-2.929-7.679-2.929-10.607 0zm40.475 59.609c-5.111 0-9.916-1.99-13.529-5.604l-16.34-16.34c-5.18-5.18-6.966-13.878-4.229-20.681l41.249 41.249c-2.243.903-4.661 1.376-7.151 1.376z"/><path d="m151.387 312.832c-6.857-6.857-17.464 3.75-10.606 10.606l29.662 29.662c6.857 6.857 17.464-3.75 10.606-10.606z"/><path d="m181.226 389.412c6.296 0 9.756-8.351 5.303-12.803l-29.662-29.662c-6.857-6.857-17.464 3.75-10.606 10.606l29.662 29.662c1.464 1.465 3.383 2.197 5.303 2.197z"/><circle cx="126.336" cy="476.466" r="8.41"/><path d="m169.325 474.07c0-4.645-3.765-8.41-8.41-8.41s-8.41 3.766-8.41 8.41 3.765 8.41 8.41 8.41 8.41-3.765 8.41-8.41z"/><path d="m449.346 58.771c-2.93-2.929-7.678-2.929-10.607 0l-24.83 24.83c-6.857 6.857 3.749 17.462 10.607 10.606l24.83-24.83c2.928-2.928 2.928-7.677 0-10.606z"/><path d="m502.756 66.236-9.455-6.51c10.119-17.824 15.23-36.976-2.65-52.453-19.965-17.278-46.52-1.447-47.008 23.128l-53.194 31.227c-9.987 5.863-8.426 18.949-8.978 28.884l-161.259 155.773c-4.438-10.206-9.111-20.776-16.321-29.345-24.111-28.712-55.933-11.081-71.82 15.334-8.931 14.851-19.055 31.682-50.224 42.374-30.967 10.61-56.204 24.243-67.33 56.534-1.688 4.903-3.158 9.893-4.369 14.828-2.247 9.159 12.23 13.108 14.568 3.573 1.103-4.496 2.443-9.044 3.982-13.517 5.971-17.327 10.687-31.014 58.013-47.229 36.342-12.466 48.983-33.484 58.214-48.832 10.491-17.442 30.23-33.961 47.483-13.414 2.009 2.387 5.142 6.948 9.38 15.536-8.79 4.441-20.437 10.586-33.631 18.212-8.621 4.983-.525 17.629 7.506 12.986 12.617-7.292 23.791-13.202 32.308-17.517.227.54.456 1.089.684 1.64l-32.499 31.394c-3.021 3.54-3.051 7.106-.092 10.697l42.763 42.763c2.961 2.961 7.781 2.927 10.697-.092l11.026-11.415c1.923 3.095 3.944 6.137 6.128 9.056-13.127 22.979-32.641 53.888-54.985 78.714-16.893 18.771-39.848 26.633-68.228 23.37-17.32-1.991-31.613-7.719-36.952-10.086-2.37-5.346-8.094-19.637-10.083-36.953-3.262-28.38 4.6-51.335 23.365-68.228 12.817-11.531 28.442-23.381 46.44-35.221 8.102-5.329-.142-17.859-8.244-12.531-18.625 12.252-34.852 24.567-48.23 36.603-34.937 31.451-35.945 85.319-15.579 125.37.72 1.418 1.873 2.571 3.291 3.292 17.475 8.869 38.425 13.457 57.917 13.457 27.108 0 50.229-9.898 67.454-29.037 21.762-24.18 40.812-53.688 54.238-76.762 5.57 5.857 19.917 16.918 11.677 25.899-15.228 16.626-31.971 31.901-39.315 53.914-15.601 46.803-28.872 51.478-47.265 57.957-43.697 15.381-94.82 4.158-132.561-21.435-4.027-4.905-29.472-37.856-29.025-86.192.09-9.689-14.91-9.856-14.999-.139-.262 28.281 8.838 79.487 34.552 98.016 40.832 29.386 99.292 40.695 147.042 23.888 19.831-6.986 38.563-13.584 56.485-67.351 6.628-19.868 22.425-33.546 36.142-48.523 7.068-7.704 8.718-16.472 4.772-25.356-7.217-16.247-24.148-27.381-33.259-42.88l117.831-121.982c3.179-3.29 5.62-7.902 1.645-12.063l-31.752-33.248 49.398-47.717 25.288 25.288-29.535 30.575c-6.738 6.975 4.05 17.393 10.789 10.421l32.967-34.129c5.904-2.06 13.437-3.488 18.555-7.243l9.338 6.495c7.695 5.354 16.692-6.661 8.564-12.314l-8.602-5.983c1.485-2.146 3.06-4.433 4.704-6.837l9.345 6.162c7.797 5.144 16.54-7.061 8.258-12.522l-9.198-6.065c1.497-2.24 3.008-4.516 4.52-6.814l8.932 6.15c7.715 5.314 16.664-6.738 8.506-12.354l-9.289-6.396c1.371-2.162 2.714-4.306 4.019-6.418l8.636 5.947c7.717 5.311 16.666-6.736 8.509-12.354zm-203.18 181.864-29.088-29.524 20.265-19.575 28.622 28.602zm-26.804 27.748-30.317-30.193 17.244-16.657 29.453 29.894zm-24.908 25.786-31.453-30.82 15.254-14.735 30.685 30.559zm-23.827 24.666-31.971-31.971 13.551-13.09 31.824 31.184zm130.944-135.557-25.183 26.07-28.255-28.235 26.72-25.811zm82.27-73.087-10.794 3.766-14.892-14.892-15.12-15.12.868-15.65c.027-.496.3-.942.729-1.194l57.124-33.535c2.642-1.55 4.082-4.502 3.627-7.531-1.719-12.698 10.323-25.022 22.041-14.884 5.609 4.855 8.466 12.371 6.947 18.278-3.579 13.917-14.954 28.071-22.63 39.955-8.274 12.812-16.828 25.442-25.56 37.947-.737.886-1.186 2.457-2.34 2.86z"/></g></svg>