<svg id="Capa_1" enable-background="new 0 0 511.957 511.957" height="512" viewBox="0 0 511.957 511.957" width="512" xmlns="http://www.w3.org/2000/svg"><g><path d="m138.399 423.055-22.658-22.658 22.225-22.225 9.052 9.052c6.784 6.782 17.541-3.673 10.607-10.606l-28.183-28.182c-6.637-6.635-17.547 3.667-10.607 10.606l8.523 8.523-22.225 22.225-22.653-22.654c-2.93-2.929-7.678-2.929-10.607 0l-27.176 27.176c-2.891 2.891-2.891 7.717.001 10.606l8.639 8.638c6.634 6.639 17.546-3.669 10.605-10.606l-3.335-3.335 16.569-16.569 45.313 45.313-16.569 16.569-17.521-17.521c-6.637-6.635-17.547 3.667-10.607 10.606l22.824 22.824c2.894 2.893 7.713 2.893 10.607 0l27.176-27.176c2.929-2.928 2.929-7.677 0-10.606z"/><path d="m51.507 354.493c3.028-3.028 3.028-7.937 0-10.964-3.028-3.028-7.937-3.028-10.964 0-3.028 3.028-3.028 7.937 0 10.964s7.936 3.027 10.964 0z"/><path d="m150.047 453.032c-3.028 3.028-3.028 7.937 0 10.964 3.028 3.028 7.937 3.028 10.964 0 3.028-3.028 3.028-7.937 0-10.964-3.028-3.028-7.937-3.028-10.964 0z"/><circle cx="417.496" cy="23.533" r="7.753"/><circle cx="444.252" cy="15.214" r="7.753"/><path d="m490.041 21.758c-2.417-.348-4.501-.648-53.462 14.777-23.429 7.381-46.605 14.939-46.837 15.015-1.122.366-2.143.992-2.978 1.827l-16.425 16.426-17.834 16.627c-7.077 6.597 3.152 17.567 10.229 10.972l12.638-11.782 44.541 44.541-30.045 32.229-70.05-70.051c-6.637-6.637-17.546 3.667-10.607 10.606l12.342 12.342-6.808 6.348-12.112-12.112c-6.637-6.635-17.547 3.667-10.607 10.606l11.741 11.741-10.374 9.672-11.389-11.389c-6.637-6.635-17.547 3.667-10.607 10.606l11.018 11.018-31.201 29.089-10.55-10.55c-6.637-6.635-17.547 3.667-10.607 10.606l10.179 10.178-10.544 9.83-9.232-9.233c-6.636-6.637-17.546 3.667-10.607 10.606l8.861 8.861-12.089 11.271-9.744-9.744c-6.637-6.635-17.547 3.667-10.607 10.606l9.373 9.373-28.92 26.962c-45.789-.534-99.675 14.387-132.695 47.406-18.063 18.063-29.457 40.95-32.951 66.187-4.959 35.819 7.408 72.725 32.955 98.272 16.545 16.544 37.932 27.838 60.947 32.1 9.512 1.753 12.246-12.987 2.732-14.749-7.636-1.415-15.133-3.734-22.242-6.86 13.669-31.807-19.966-65.315-51.728-51.478-16.471-37.033-9.039-81.329 19.072-110.966l87.817-8.478c21.019 1.809 46.6 6.892 51.773 12.066 5.161 5.161 10.24 30.7 12.061 51.714l-8.476 87.869c-15.354 14.6-34.468 23.873-55.467 26.839-9.523 1.346-7.539 16.216 2.098 14.853 25.083-3.543 47.835-14.9 65.804-32.841 33.218-32.3 46.846-86.715 46.711-131.926 0 0 216.044-230.781 220.876-235.669 9.079-2.526 17.526-1.851 24.257-9.868 7.685-9.153 19.4-35.585 20.711-38.569.28-.64.471-1.315.564-2.007 2.387-17.614-5.65-29.491-21.505-31.769zm-433.581 427.691c6.862 6.861 8.87 16.789 5.681 25.462-12.501-7.908-23.258-18.616-31.232-31.074 8.678-3.149 18.784-1.155 25.551 5.612zm366.659-337.297-27.204-27.204 27.584 2.99zm-90.954 13.748 47.467 47.468-6.347 6.809-47.928-47.928zm-17.787 16.583 48.672 48.672-9.672 10.374-49.375-49.375zm-21.352 19.907 50.118 50.118-29.087 31.202-52.232-52.231zm-42.18 39.324 52.975 52.975-9.83 10.545-53.689-53.69zm-21.522 20.065 54.433 54.433-11.27 12.089-55.252-55.252zm-23.068 21.507 55.995 55.995-18.506 19.852c-4.593-32.81-23.552-52.693-56.737-57.901zm8.412 174.196c-3.245 8.036-7.033 15.875-11.494 23.309l6.041-62.618 20.145-21.61c-1.929 20.808-6.831 41.546-14.692 60.919zm-95.459-137.215c10.116-2.431 20.412-4.164 30.782-5.035l-22.613 21.08-63.021 6.084c15.507-9.572 34.754-17.281 54.852-22.129zm28.432 17.663 24.796-23.115c14.789.778 32.757 3.632 43.669 14.715 11 11.173 13.285 29.488 13.885 44.356l-22.382 24.011c-2.237-15.751-6.65-37.424-14.596-45.37-7.949-7.946-29.621-12.359-45.372-14.597zm349.162-247.43c-3.68 8.268-12.897 27.852-18.024 33.959-5.536 6.595-16.724 2.253-22.924 8.452-2.005 2.005-10.244 10.498-17.717 18.216l.468-29.79c.061-3.874-2.839-7.157-6.69-7.574l-39.988-4.334 4.174-4.174c40.276-13.123 85.171-27.179 92.604-28.521 5 .885 9.224 3.424 8.097 13.766z"/></g></svg>