<svg id="Capa_1" enable-background="new 0 0 511.962 511.962" height="512" viewBox="0 0 511.962 511.962" width="512" xmlns="http://www.w3.org/2000/svg"><g><path d="m509.706 46.089-43.927-43.927c-3.134-3.132-8.453-2.82-11.195.663l-6.543 8.306-4.066-4.065c-6.634-6.639-17.546 3.669-10.605 10.606l5.325 5.324-4.914 6.239-3.149-3.149c-6.637-6.635-17.547 3.667-10.607 10.606l4.409 4.409-11.6 14.727c-1.355 1.72-1.84 3.867-1.498 5.892l-200.18 183.564c-61.744-34.183-141.146-16.991-183.219 39.596-35.085 46.639-37.047 112.414-5.685 161.376-.47 2.387.236 4.937 2.053 6.755l34.553 34.551c1.676 1.677 4.408 2.495 6.733 2.043 22.75 14.53 49.62 22.357 76.746 22.357 61.384 0 115.932-40.562 135.229-98.453 12.054-37.214 7.952-78.587-10.984-112.794l140.981-153.743c6.539-7.13-4.516-17.267-11.055-10.138l-5.539 6.041-21.976-21.976 51.932-47.621 17.665 17.666-18.365 20.027c-6.539 7.13 4.518 17.27 11.055 10.138l18.869-20.576c1.995.336 4.306-.249 5.89-1.497l14.727-11.601 4.457 4.457c6.783 6.783 17.54-3.673 10.607-10.606l-3.197-3.198 6.239-4.914 5.374 5.374c6.781 6.785 17.54-3.675 10.605-10.606l-4.114-4.114 8.306-6.543c3.481-2.743 3.795-8.062.663-11.196zm-48.564-27.349 31.986 31.986-41.134 32.401-23.254-23.254zm-154.311 215.889-29.591-29.592 33.493-30.713 26.812 26.812zm-37.417 132.011c-3.842-.875-7.959-2.28-11.917-2.482-1.396-28.515-13.35-55.778-33.679-76.107-20.426-20.427-47.815-32.38-76.458-33.688-.1-3.961-1.55-8.081-2.423-11.911 32.644.721 64.024 14.021 87.241 37.238 23.136 23.135 36.429 54.415 37.236 86.95zm-1.008 19.347c-.707 5.508-1.774 10.961-3.195 16.329l-12.505-2.849 4.602-20.202 11.557 2.633c-.127 1.367-.28 2.729-.459 4.089zm-156.378-127.197-2.747-12.06c6.689-1.785 13.514-3.018 20.404-3.693l2.544 11.151zm-17.055-7.336 2.579 11.326c-.02-.088-21.032 11.851-23.27 13.49-8.181 5.993-15.583 13.034-21.958 20.923l-8.404-8.404c13.577-16.466 31.206-29.456 51.053-37.335zm-63.467 181.095c-23.142-40.593-21.823-92.087 3.47-131.491l18.117 18.117c-15.684 27.68-17.56 61.632-4.971 90.948zm31.23-16.953c.066-.087.133-.174.195-.263l9.322-12.582 25.365 11.5 11.499 25.365-24.395 18.074c-.075.055-.151.109-.225.167l-19.606 14.526-25.406-25.406zm109.179 64.663 2.84 12.464c-6.694 1.769-13.525 2.987-20.417 3.645l-2.623-11.509c6.733-1.533 13.466-3.067 20.2-4.6zm-35.313 4.737c.186 3.95 1.598 8.071 2.472 11.904-20.955-.539-41.621-6.252-59.763-16.532l10.495-7.776c14.547 7.413 30.476 11.625 46.796 12.404zm95.583-25.313c-12.486 12.487-26.961 21.996-43.113 28.356l-2.663-11.693c6.438-2.665 12.632-5.901 18.486-9.695 8.119-5.262-.041-17.851-8.158-12.587-26.852 17.402-63.738 20.638-93.205 8.358l19.383-14.361c2.84-2.104 3.825-5.904 2.366-9.123l-15.165-33.451c-.751-1.656-2.078-2.983-3.734-3.734l-33.451-15.166c-3.219-1.46-7.018-.474-9.123 2.366l-5.026 6.783c-7.636-24.572-4.12-51.797 10.066-73.615 1.931-2.97 1.521-6.887-.984-9.392l-4.85-4.85c36.495-46.687 108.087-51.334 150.197-9.223 35.145 35.144 38.705 93.93 8.098 132.936-5.936 7.567 5.76 16.957 11.801 9.26 6.475-8.251 11.73-17.269 15.713-26.886l11.696 2.664c-6.359 16.124-15.861 30.58-28.334 43.053zm10.6-190.6c-5.731-5.731-11.914-10.912-18.453-15.53l41.841-38.368 30.51 30.51-38.369 41.842c-4.618-6.54-9.799-12.723-15.529-18.454zm138.037-115.142-33.131 36.13-25.893-25.893 36.13-33.131z"/><path d="m112.377 353.39c-6.637-6.637-17.546 3.667-10.607 10.606l46.102 46.103c6.783 6.783 17.541-3.673 10.607-10.606z"/><circle cx="197.341" cy="312.952" r="7.711"/></g></svg>