<svg id="Capa_1" enable-background="new 0 0 511.565 511.565" height="512" viewBox="0 0 511.565 511.565" width="512" xmlns="http://www.w3.org/2000/svg"><g><path d="m65.247 402.432c6.636 6.636 17.546-3.668 10.606-10.606l-9.893-9.893c-2.928-2.929-7.677-2.929-10.606 0l-16.143 16.142c-2.891 2.89-2.891 7.716 0 10.606l63.556 63.556c2.893 2.894 7.713 2.893 10.606 0l16.143-16.142c2.891-2.89 2.891-7.716 0-10.606l-29.058-29.058c-6.636-6.636-17.546 3.668-10.606 10.606l23.755 23.755-5.536 5.536-52.95-52.95 5.536-5.536z"/><path d="m102.849 276.562c-7.655-3.479-17.902-.196-26.743 8.572-22.052 21.868-20.219 56.683-8.477 83.104 2.978 6.7 13.133 5.382 14.268-1.917.041-.264 4.383-26.667 28.892-54.518 9.157-10.409 3.867-29.873-7.94-35.241zm-4.178 26.314c-11.733 13.55-19.212 26.713-23.93 37.341-2.913-19.195 2.697-34.155 10.479-42.901 7.727-8.685 18.711-8.816 13.451 5.56z"/><path d="m143.213 443.821c26.422 11.743 61.23 13.582 83.104-8.477 9.392-9.471 15.012-25.55 2.144-34.931-7.089-5.168-21.824-5.9-28.812.248-27.773 24.44-54.106 28.826-54.515 28.891-7.107 1.08-8.62 11.292-1.921 14.269zm65.359-31.039c13.704-5.013 14.502 5.494 5.563 13.449-8.746 7.782-23.706 13.393-42.901 10.479 10.627-4.717 23.79-12.197 37.338-23.928z"/><path d="m505.068 48.579-42.071-42.07c-8.874-8.875-23.895-8.552-32.359.727l-10.854 11.875-8.443-8.443c-6.636-6.636-17.546 3.668-10.606 10.606l8.92 8.92-11.481 12.561-9.46-9.46c-6.636-6.636-17.546 3.668-10.606 10.606l9.936 9.937-13.458 14.724c-4.5 4.924-6.393 11.31-5.737 17.469l-106.936 101.326c-38.912-18.147-87.086-14.736-118.426 16.644-1.504 1.502-2.968 3.068-4.354 4.655-6.341 7.265 4.899 17.198 11.301 9.864 1.162-1.331 2.391-2.646 3.66-3.914 4.103-4.108 8.625-7.703 13.503-10.781v70.639c-44.203 9.703-60.738 66.12-28.734 98.129 31.917 31.917 88.452 15.461 98.063-28.728h70.699c-8.036 12.736-19.772 22.998-33.463 29.272-15.551 7.127-26.2 21.395-28.486 38.165-3.009 22.067-12.584 41.711-27.692 56.81-45.98 45.981-121.018 31.843-163.744-10.89-3.232-3.233-6.29-6.599-9.101-10.024-40.117-48.548-40.89-114.638-1.8-153.728 15.111-15.103 34.756-24.675 56.816-27.684 12.427-1.702 23.642-8.047 31.58-17.864 6.082-7.524-5.581-16.952-11.665-9.431-5.526 6.836-13.322 11.251-21.946 12.433-25.329 3.455-47.94 14.498-65.39 31.937-47.56 47.56-39.799 124.709.827 173.872 3.106 3.784 6.495 7.517 10.073 11.095 48.565 48.574 133.124 62.724 184.956 10.892 17.445-17.435 28.494-40.047 31.95-65.392 1.589-11.653 9.018-21.58 19.873-26.555 53.046-24.309 66.774-87.582 43.763-137.062l59.027-62.298c6.654-7.022-4.235-17.339-10.889-10.316l-59.554 62.854-32.416-8.844-8.798-32.215 104.309-98.836 35.671 35.671-14.942 15.768c-6.646 7.014 4.217 17.357 10.888 10.317l18.086-19.086c6.264.664 12.801-1.484 17.457-5.738l14.723-13.457 9.936 9.936c6.783 6.783 17.54-3.674 10.606-10.606l-9.459-9.459 12.561-11.481 8.919 8.919c6.783 6.783 17.54-3.674 10.606-10.606l-8.443-8.443 11.875-10.854c4.307-4.072 6.596-9.632 7.094-14.21.728-6.668-1.598-13.38-6.365-18.148zm-294.428 313.409c-16.865 16.865-44.305 16.864-61.169 0-26.642-26.647-7.164-73.878 30.592-73.878 37.79 0 57.183 47.272 30.577 73.878zm61.623-117.536 37.697 10.284c10.922 22.801 13.879 50.137 5.046 74.13h-76.784c-1.283-29.721-25.842-54.403-55.624-55.706v-76.711c24.03-8.767 51.278-5.887 74.115 5.056l10.29 37.688c.699 2.56 2.7 4.56 5.26 5.259zm221.957-174.586-12.373 11.309-5.453-5.453c-6.636-6.636-17.546 3.668-10.606 10.606l4.976 4.976-12.561 11.481-4.436-4.436c-6.636-6.636-17.546 3.668-10.606 10.606l3.96 3.96-14.225 13.002c-2.92 2.67-7.401 2.565-10.204-.236l-36.797-36.797c-2.741-2.741-2.896-7.293-.236-10.203l13.003-14.226 3.959 3.959c6.783 6.783 17.54-3.674 10.606-10.606l-4.436-4.436 11.481-12.561 4.976 4.976c6.783 6.783 17.54-3.674 10.606-10.606l-5.453-5.453 11.314-12.378c2.785-3.053 7.76-3.15 10.675-.235l42.07 42.07c2.945 2.945 2.832 7.872-.24 10.681z"/></g></svg>