<svg id="Capa_1" enable-background="new 0 0 511.887 511.887" height="512" viewBox="0 0 511.887 511.887" width="512" xmlns="http://www.w3.org/2000/svg"><g><path d="m31.086 373.143c1.347 2.293 3.808 3.702 6.467 3.702 1.166 0 28.729-.283 43.508-24.915 12.667-21.111 1.354-39.327-6.396-46.009-3.544-3.057-9.167-2.06-11.447 2.027l-32.215 57.743c-1.296 2.323-1.265 5.158.083 7.452zm39.411-47.455c5.067 13.547-6.45 27.238-18.167 32.564 6.055-10.855 12.111-21.709 18.167-32.564z"/><path d="m161.56 432.429c-24.632 14.779-24.915 42.342-24.915 43.508 0 5.629 6.244 9.288 11.154 6.55l57.743-32.215c4.087-2.28 5.083-7.902 2.027-11.447-6.683-7.751-24.898-19.063-46.009-6.396zm-6.321 28.73c5.325-11.718 19.002-23.238 32.563-18.167-10.854 6.056-21.709 12.112-32.563 18.167z"/><path d="m509.647 72.427-8.701-8.7c1.163-12.941-1.035-26.696-1.704-39.641-.357-6.651-5.632-11.911-12.246-12.232-12.935-.671-26.664-2.854-39.594-1.671l-7.93-7.93c-6.636-6.636-17.546 3.668-10.606 10.606l2.493 2.493c-2.653 1.538-5.135 3.381-7.4 5.48l-1.533-1.533c-6.638-6.635-17.545 3.668-10.606 10.607l3.07 3.07c-.989 2.009-1.823 4.112-2.477 6.298l-4.98-4.98c-6.636-6.636-17.546 3.668-10.606 10.606l10.888 10.888c-1.384 4.305-2.684 8.041-3.421 10.12l-128.856 115.003c-25.541-5.852-52.838 3.994-68.81 24.757-8.22 10.702-20.856 16.673-33.794 16.011-44.843-2.326-90.395 16.196-125.021 50.823-2.263 2.262-4.483 4.601-6.599 6.95-6.458 7.171 4.64 17.261 11.146 10.038 1.941-2.156 3.979-4.303 6.059-6.381 31.627-31.628 73.045-48.557 113.635-46.451 17.875.938 35.244-7.236 46.467-21.849 9.944-12.927 25.708-20.676 42.024-20.605l-91.233 88.109c-6.934 6.932 3.824 17.389 10.606 10.606l56.707-56.707 13.802 13.802-76.537 76.537-59.536-59.536c-2.89-2.891-7.716-2.891-10.606 0l-15.501 15.502c-2.929 2.929-2.929 7.678 0 10.606l37.286 37.286-61.604 61.605c-1.418.648-2.637 1.719-3.432 3.133-6.806 12.1-22.434 29.568-32.355 40.129-18.866-35.795-17.549-79.114 4.058-117.773 4.72-8.445-8.374-15.764-13.094-7.318-12.762 22.834-19.366 47.983-19.097 72.73.247 22.806 6.318 44.907 17.586 64.266-.953 2.649-.377 5.724 1.745 7.847l37.685 37.685c1.972 1.972 5.23 2.687 7.847 1.745 57.944 33.701 129.151 15.319 174.684-30.214 35.901-35.901 54.739-84.835 50.389-130.914-1.811-18.82 8.938-28.294 20.453-40.941 12.916-14.19 19.082-33.025 17.201-52.158l73.904-83.533c6.41-7.246-4.825-17.187-11.234-9.939l-104.159 117.726-38.569-38.569 162.865-145.36 20.392 20.392-16.991 19.204c-6.41 7.246 4.824 17.186 11.234 9.939l20.447-23.111c2.019-.757 5.669-2.096 9.898-3.515l11.611 11.611c6.782 6.784 17.54-3.674 10.606-10.606l-5.768-5.768c2.119-.61 4.227-1.448 6.286-2.49l3.87 3.87c6.783 6.783 17.54-3.674 10.606-10.606l-2.425-2.425c2.072-2.239 3.932-4.711 5.507-7.374l3.358 3.358c6.786 6.782 17.543-3.675 10.61-10.608zm-248.613 188.194 14.805 14.805-69.833 69.833c-7.432-3.114-14.368-6.583-19.951-9.659zm15.986 52.882c-3.603 12.338-5.75 25.478-16.127 34.345-11.045 9.438-26.428 6.822-39.292 3.028 19.22-19.22 38.441-38.441 57.661-57.661-.285 6.801-.989 13.596-2.242 20.288zm-167.97-30.578 120.076 120.075-4.896 4.896-120.075-120.076zm10.461 144.565-1.668-23.68 40.544-40.544 12.674 12.674zm28.27-74.831-41.416 41.416-21.753-1.532 51.527-51.527zm-76.703 53.969 32.085 2.259 2.259 32.086c-14.928 9.563-33.89 27.12-43.031 35.895l-27.208-27.208c8.775-9.143 26.332-28.104 35.895-43.032zm157.869 47.009c-44.128 44.128-104.124 55.687-152.185 30.284 10.56-9.921 28.036-25.557 40.141-32.365 1.38-.776 2.432-1.955 3.084-3.33l61.68-61.679 37.259 37.259c2.89 2.891 7.716 2.891 10.606 0l15.502-15.502c2.929-2.929 2.929-7.678 0-10.606l-34.728-34.728c22.029 7.729 48.023 11.173 65.004-8.335-2.193 35.522-18.76 71.399-46.363 99.002zm70.356-171.347c-1.549 1.702-3.199 3.287-4.916 4.741.007-3.261-.081-6.288-.24-8.993l17.566-19.854c-1.93 8.901-6.137 17.215-12.41 24.106zm185.056-255.553c.628 12.146 3.528 26.16 1.235 38.204-4.35 19.858-26.951 21.265-42.612 26.971l-23.627-23.628c2.686-7.754 5.245-15.621 7.123-23.616 2.934-11.68 14.168-20.285 25.643-19.605z"/></g></svg>