<svg id="Capa_1" enable-background="new 0 0 511.898 511.898" height="512" viewBox="0 0 511.898 511.898" width="512" xmlns="http://www.w3.org/2000/svg"><g><path d="m496.891 9.552c-2.739-5.967-8.496-9.621-15.084-9.551l-67.179.741c-4.423.05-12.348-.866-15.905 2.691l-121.348 121.348c-6.637 6.637 3.668 17.544 10.607 10.606l119.385-119.385c1.736-.108 4.281-.227 7.427-.262l67.186-.74c1.026.021 1.941 1.317 1.06 2.318l-61.178 69.487c-10.476 11.913-30.505 6.39-44.302 5.254-2.678-.225-5.247.998-6.773 3.193l-69.575 100.083c-3.196 3.43-4.136 8.949-.007 12.208l77.496 61.162c11.985 9.859 23.231 26.128 6.183 38.413l-82.553 59.728 51.722-51.722c6.055-6.055 6.055-15.907 0-21.962l-22.136-22.136c-6.055-6.054-15.905-6.054-21.962 0l-29.557 29.557c-6.637 6.637 3.668 17.544 10.607 10.606l29.556-29.557c.207-.207.544-.207.749 0l22.135 22.136c.207.207.207.542 0 .749l-62.953 62.953c-.205.206-.543.206-.748 0l-22.136-22.135c-.206-.207-.206-.542 0-.749l8.397-8.397c6.637-6.637-3.668-17.544-10.607-10.606l-8.397 8.397c-6.055 6.055-6.055 15.907 0 21.962l22.135 22.135c3.02 3.019 7.167 4.64 11.423 4.521l-152.414 110.271c-9.185 6.39-21.585 5.287-29.505-2.632l-25.363-25.363c-8.365-8.365-20.941-13.256-31.18-18.898-6.361-3.504-10.826-10.068-11.761-17.272-1.648-12.783-5.28-23.917 2.556-35.284l85.701 85.701c2.893 2.894 7.713 2.893 10.606 0l39.208-39.208c2.891-2.89 2.891-7.716 0-10.606l-21.828-21.828 165.546-165.546c2.929-2.929 2.929-7.678 0-10.606l-60.041-60.041 10.921-10.921c6.637-6.637-3.667-17.544-10.607-10.606l-226.281 226.28c-16.014 16.009-13.232 34.625-10.658 54.589 1.548 11.909 8.882 22.691 19.399 28.485 8.882 4.894 20.551 9.106 27.812 16.367l25.363 25.363c12.917 12.917 33.908 14.766 48.852 4.217l256.743-185.755c12.632-8.86 18.12-25.45 13.261-40.112-3.318-10.012-10.911-15.952-18.813-22.197l-71.973-56.803 64.533-92.83c18.644 1.536 38.444 5.316 52.486-10.649l61.177-69.486c4.34-4.933 5.333-11.706 2.592-17.676zm-430.424 347.351 15.512 15.512c-4.017 3.122-6.918 8.881-2.595 13.202l33.923 33.922-12.671 12.671-3.87 3.87-54.408-54.408c3.509-3.932 24.109-24.769 24.109-24.769zm197.415-87.94-28.62-28.62 5.184-5.184 28.62 28.62c-.001.001-4.249 4.249-5.184 5.184zm-19.043 19.043-33.924-33.924c-4.337-4.338-9.953-1.205-13.201 2.595l-15.511-15.511 24.229-24.229 15.511 15.51c-4.017 3.121-6.913 8.879-2.592 13.198l33.924 33.924zm-15.79 15.79-28.621-28.621 5.184-5.184 28.621 28.621zm-57.452-52.023 15.511 15.511c-4.016 3.121-6.909 8.878-2.589 13.196l33.924 33.924-16.539 16.539-54.738-54.738zm-12.637 122.113-28.621-28.621 5.184-5.184 28.621 28.621zm-58.484 1.245 28.619 28.619c-1.727 1.727-3.455 3.455-5.182 5.182l-28.619-28.619zm39.226 18.013-33.922-33.923c-4.178-4.18-10.162-1.504-13.194 2.587l-15.512-15.512 24.44-24.44 15.511 15.511c-3.771 3.248-6.984 8.813-2.595 13.201l33.924 33.924zm-15.806 70.067-16.524-16.524 28.602-28.602 16.524 16.524zm50.854-105.115-33.924-33.924c-4.179-4.181-10.164-1.502-13.195 2.589l-15.511-15.511 24.439-24.439 54.738 54.738zm121.466-121.467-16.544 16.544-33.924-33.923c-4.227-4.229-9.766-1.35-12.988 2.381l-15.51-15.511 24.229-24.229z"/><path d="m405.422 70.183 29.351-29.351c6.637-6.637-3.668-17.544-10.607-10.606l-29.351 29.351c-6.934 6.933 3.823 17.388 10.607 10.606z"/><circle cx="219.465" cy="372.122" r="9.202"/><path d="m193.514 387.466-15.79 15.79c-6.934 6.932 3.824 17.389 10.606 10.606l15.79-15.79c6.638-6.635-3.668-17.544-10.606-10.606z"/></g></svg>