<svg id="Capa_1" enable-background="new 0 0 512 512" height="512" viewBox="0 0 512 512" width="512" xmlns="http://www.w3.org/2000/svg"><g><path d="m485.765 145.881h-7.404v-31.368c0-13.77-11.914-23.523-25.186-22.97.412-8.349-3.956-16.711-13.382-16.711h-314.381c-9.675 0-9.675 15 0 15h312.763v18.422h-364.35v-18.422h16.641c9.675 0 9.675-15 0-15h-18.259c-9.426 0-13.794 8.361-13.382 16.711-13.268-.619-25.186 9.242-25.186 22.97v31.368h-7.404c-14.465 0-26.235 11.769-26.235 26.235v213.168c0 14.466 11.77 26.235 26.235 26.235h20.457v18.149c0 4.142 3.357 7.5 7.5 7.5h105.116c5.802 0 9.438-6.594 6.344-11.501l-8.923-14.148h20.933c9.675 0 9.675-15 0-15h-61.07v-18.747c37.88-2.425 67.961-33.997 67.961-72.479v-55.128c0-38.482-30.081-70.054-67.961-72.479v-16.806h64.001l14.617 48.477c4.058 13.458 14.896 22.5 26.969 22.5h67.641c12.073 0 22.911-9.042 26.969-22.5l14.617-48.477h62.656v16.904c-37.275 3.047-66.682 34.334-66.682 72.381v55.128c0 38.047 29.406 69.334 66.682 72.381v18.845h-180.972c-9.675 0-9.675 15 0 15h146.027l-8.923 14.148c-3.094 4.907.542 11.501 6.344 11.501h105.116c4.143 0 7.5-3.358 7.5-7.5v-18.148h16.61c14.466 0 26.235-11.769 26.235-26.235v-213.169c.001-14.466-11.769-26.235-26.234-26.235zm-424.073 276.287v-10.647h77.305l6.715 10.647zm107.862-172.002v55.128c0 75.57-120.914 75.601-120.914 0v-55.128c0-75.571 120.914-75.602 120.914 0zm-67.961-72.478c-37.876 2.429-67.953 33.999-67.953 72.478v55.128c0 38.479 30.077 70.049 67.953 72.478v18.75l-75.357-.002c-6.195 0-11.235-5.04-11.235-11.235v-213.169c0-6.195 5.04-11.235 11.235-11.235h75.357zm188.227 39.169c-15.729 0-60.777.985-67.069 0-10.885-1.704-13.023-11.313-15.79-20.488h21.291c5.004 0 9.625-6.014 13.026-9.032l8.134 14.949c2.505 4.605 9.152 5.18 12.425 1.125l12.135-15.037h33.477c-2.684 8.903-5.351 28.483-17.629 28.483zm22.152-43.482h-41.585c-5.777 0-9.982 7.926-13.168 11.875l-7.274-13.369c-2.272-4.177-8.01-5.181-11.566-2.025l-12.974 11.514h-22.966l-6.178-20.488h119.479zm-263.332-27.494v-31.368c0-5.47 5.236-8.477 10.186-7.97-.412 8.349 3.956 16.711 13.382 16.711h367.586c9.426 0 13.794-8.361 13.382-16.711 4.963-.542 10.186 2.426 10.186 7.97v31.368zm293.74 159.413v-55.128c0-75.69 120.914-75.703 120.914 0v55.128c0 75.66-120.914 75.733-120.914 0zm111.774 116.874h-84.02l6.715-10.647h77.305zm42.846-36.884c0 6.195-5.04 11.235-11.235 11.235h-76.703v-18.666c38.478-1.789 69.232-33.647 69.232-72.559v-55.128c0-38.913-30.755-70.77-69.232-72.559v-16.725h76.703c6.195 0 11.235 5.04 11.235 11.235z"/><path d="m58.676 252.977v49.506c0 27.42 23 50.422 50.421 50.422 27.424 0 50.421-23 50.421-50.422v-49.506c0-27.42-23.001-50.421-50.421-50.421-27.424 0-50.421 22.999-50.421 50.421zm85.842 0v49.506c0 45.646-70.842 45.743-70.842 0v-49.506c0-45.645 70.842-45.743 70.842 0z"/><path d="m453.259 302.482v-49.506c0-27.802-22.619-50.421-50.422-50.421-27.802 0-50.421 22.619-50.421 50.421 0 9.674 15 9.674 15 0 0-45.645 70.843-45.742 70.843 0v49.506c0 45.646-70.843 45.744-70.843 0v-14.115c0-9.674-15-9.674-15 0v14.115c0 27.42 23 50.422 50.421 50.422 27.424 0 50.422-23 50.422-50.422z"/><path d="m304.432 250.632h-96.863c-4.143 0-7.5 3.358-7.5 7.5v32.226c0 4.142 3.357 7.5 7.5 7.5h96.863c4.143 0 7.5-3.358 7.5-7.5v-32.226c0-4.142-3.358-7.5-7.5-7.5zm-7.5 32.226h-81.863v-17.226h81.863z"/><path d="m207.568 329.992h96.863c9.674 0 9.674-15 0-15h-96.863c-9.674 0-9.674 15 0 15z"/><path d="m294.5 339.524c-13.167 0-23.88 10.713-23.88 23.88s10.713 23.88 23.88 23.88 23.88-10.712 23.88-23.88-10.713-23.88-23.88-23.88zm0 32.76c-4.896 0-8.88-3.983-8.88-8.88s3.983-8.88 8.88-8.88 8.88 3.984 8.88 8.88-3.984 8.88-8.88 8.88z"/><ellipse cx="208.828" cy="361.318" rx="9.599" ry="9.599" transform="matrix(.383 -.924 .924 .383 -204.901 415.979)"/><ellipse cx="243.356" cy="361.318" rx="9.599" ry="9.599" transform="matrix(.987 -.16 .16 .987 -54.734 43.647)"/></g></svg>