<svg id="Capa_1" enable-background="new 0 0 511.892 511.892" height="512" viewBox="0 0 511.892 511.892" width="512" xmlns="http://www.w3.org/2000/svg"><g><path d="m171.651 302.55c-3.923-2.265-8.492-2.866-12.869-1.694l-51.322 13.751c-2.447.657-3.46-3.129-1.014-3.784 9.345-2.504 5.463-16.987-3.883-14.489-9.031 2.42-14.411 11.737-11.991 20.771 2.421 9.033 11.737 14.41 20.771 11.991l51.322-13.751c2.446-.657 3.46 3.13 1.013 3.784-9.341 2.503-5.457 16.986 3.883 14.489 14.2-3.806 16.849-23.701 4.09-31.068z"/><path d="m225.625 448.352c7.486 0 14.356-5.003 16.385-12.571 2.504-9.344-11.986-13.229-14.488-3.884-.655 2.446-4.44 1.433-3.785-1.013l13.752-51.323c2.42-9.032-2.96-18.349-11.991-20.77-9.03-2.417-18.35 2.959-20.771 11.991-2.504 9.344 11.984 13.228 14.488 3.884.655-2.447 4.44-1.433 3.785 1.013l-13.752 51.323c-2.837 10.587 5.397 21.35 16.377 21.35z"/><path d="m504.375 102.405-15.374-15.375c5.231-4.587 7.927-12.164 2.279-17.814l-20.733-20.733c-4.283-4.281-11.25-4.281-15.535.001l-10.532 10.531-15.296-15.296c-6.637-6.637-17.546 3.667-10.607 10.606l15.296 15.297-14.979 14.98-15.296-15.296c-6.637-6.635-17.547 3.667-10.607 10.606l15.297 15.297-73.191 69.485c-62.771-18.201-139.513-1.491-177.58 55.727-2.108 3.164-1.516 7.404 1.379 9.869 11.272 9.46 4.089 24.781-3.904 33.306-20.377 21.741-56.4 5.136-56.749 4.973-2.462-1.172-5.368-.915-7.586.672-13.264 9.488-24.638 19.717-33.803 30.403-40.538 47.249-36.513 108.804-3.428 158.605-.183 2.129.537 4.321 2.166 5.95l18.905 18.905c1.457 1.457 3.874 2.346 5.955 2.166 34.261 22.735 77.377 34.497 117.378 20.734 9.148-3.147 4.27-17.329-4.881-14.184-40.144 13.81-77.677-2.382-100.136-16.425l38.954-38.954 26.351-9.814c1.008-.375 1.924-.964 2.686-1.725l18.176-18.176c2.903-2.902 2.889-7.749-.028-10.635l-12.364-12.224 6.14-6.14 16.226 16.226c6.783 6.783 17.541-3.673 10.607-10.606l-16.226-16.227 43.098-43.098 9.993 9.993c4.475 4.473 12.153 4.37 16.464-.222l109.428-115.682c12.635 54.287-3.978 111.542-47.879 147.18-16.453-11.716-35.983-5.295-49.596 7.471-24.788 23.235-14.64 57.881-10.035 69.906-10.359 13.904-21.491 25.281-33.135 33.856-7.668 5.647.914 17.954 8.895 12.078 13.839-10.192 26.923-23.838 38.888-40.56 1.587-2.218 1.845-5.124.673-7.587-.172-.36-16.889-36.258 4.975-56.751 5.468-5.129 12.747-10.196 20.612-9.759 2.065.115 12.592 5.906 12.691 5.856 2.465 2.895 6.705 3.487 9.869 1.38 56.632-37.716 73.753-113.546 56.201-175.925l78.334-82.029 15.374 15.374c6.784 6.782 17.541-3.673 10.607-10.606l-15.375-15.375 14.98-14.98 15.374 15.374c6.781 6.779 17.538-3.676 10.604-10.609zm-41.596-40.476 15.055 15.055-14.984 14.984-15.055-15.055zm-28.248 58.358-15.054-15.054 17.712-17.713 15.055 15.055zm-378.322 296.276c-1.708 1.708-3.487 3.338-5.337 4.89-13.745-34.255-11.088-73.505 10.831-103.775 27.594 27.63 20.487 72.904-5.494 98.885zm95.139-3.424-26.351 9.814c-1.008.375-1.924.964-2.686 1.725l-42.514 42.514-8.299-8.299 42.515-42.515c.761-.761 1.349-1.677 1.725-2.686l9.814-26.35 11.689-11.689 25.795 25.795zm93.127-92.286-25.586-25.586 62.192-58.829c7.027-6.649-3.28-17.546-10.309-10.897l-64.825 61.321c-4.582 4.341-4.698 11.979-.224 16.454l10.098 10.098-43.098 43.098-17.723-17.725c-6.637-6.637-17.546 3.667-10.607 10.606l17.724 17.724-6.147 6.147-13.366-13.519c-2.862-2.895-7.757-2.908-10.635-.029l-18.178 18.176c-.761.761-1.349 1.677-1.725 2.686l-9.814 26.35-38.949 38.949c-1.942-3.126-3.963-6.614-5.958-10.42 39.377-30.337 52.096-92.688 13.89-129.429 7.02-7.669 15.331-15.093 24.793-22.141 12.024 4.605 46.671 14.754 69.904-10.033 12.769-13.615 19.171-33.167 7.474-49.596 36.096-44.461 94.12-60.766 148.905-47.471l-25.365 23.994c-7.027 6.649 3.278 17.543 10.309 10.897l101.47-95.984 15.324 15.324z"/><path d="m36.207 292.579c1.989 0 3.896-.79 5.304-2.197l173.994-173.994c6.637-6.637-3.668-17.544-10.607-10.606l-123.856 123.857-12.537-3.826 202.84-202.841 12.957 3.405-54.477 54.477c-6.933 6.933 3.823 17.388 10.607 10.606l78.629-78.629c6.637-6.637-3.668-17.544-10.607-10.606l-11.87 11.87-25.591-6.725c-2.578-.677-5.323.064-7.21 1.951l-211.532 211.532c-3.387-1.373-7.427-1.855-10.298 1.014l-34.48 34.479c-2.929 2.929-2.929 7.678 0 10.606l23.43 23.43c1.407 1.407 3.314 2.197 5.304 2.197zm13.168-56.921 19.65 5.997-32.818 32.818-12.823-12.824z"/></g></svg>