<svg id="Capa_1" enable-background="new 0 0 511.997 511.997" height="512" viewBox="0 0 511.997 511.997" width="512" xmlns="http://www.w3.org/2000/svg"><g><path d="m122.144 320.878c4.674 0 9.349-1.779 12.907-5.338l42.713-42.713c2.973-2.975 7.576 1.627 4.601 4.601-6.637 6.637 3.666 17.544 10.606 10.607 16.656-16.656-9.159-42.472-25.814-25.814l-42.713 42.713c-2.975 2.973-7.576-1.627-4.601-4.602 6.637-6.636-3.668-17.545-10.606-10.606-11.243 11.243-3.006 31.152 12.907 31.152z"/><path d="m260.266 355.329c16.656-16.656-9.159-42.47-25.814-25.814-6.636 6.637 3.669 17.545 10.607 10.606 2.973-2.975 7.575 1.627 4.601 4.601l-42.713 42.713c-16.64 16.639 9.155 42.473 25.814 25.814 6.637-6.636-3.668-17.545-10.606-10.606-2.974 2.974-7.576-1.627-4.602-4.601z"/><path d="m252.187 29.56c6.637-6.636-3.668-17.545-10.606-10.606l-14.249 14.249-28.594-11.663c-2.794-1.139-6.001-.494-8.136 1.641l-188.452 188.453c-3.731 3.731-2.415 10.255 2.471 12.248l22.752 9.28-14.048 14.048c-6.934 6.932 3.824 17.389 10.606 10.606zm-231.447 184.696 176.946-176.946 18.139 7.398-176.945 176.947z"/><path d="m509.756 79.26-11.93-11.93c8.803-7.968 10.291-21.766 1.554-30.502l-13.841-13.841c-8.769-8.634-22.427-7.055-30.383 1.673l-11.931-11.931c-6.636-6.636-17.546 3.668-10.606 10.606l11.931 11.931c-3.353 3.049-6.004 7.003-7.022 11.46l-16.486 15.596c-7.028 6.648 3.279 17.543 10.309 10.896l9.932-9.396c4.83 6.231 11.202 12.595 17.381 17.381l-174.141 184.085c-2.329 2.461-5.679 1.947-7.865-.239l-19.221-19.22c-2.187-2.187-2.701-5.536-.24-7.866l151.246-143.076c7.028-6.648-3.281-17.546-10.309-10.896l-34.604 32.734c-23.541 11.448-47.916 23.048-76.179 19.376-36.724-4.786-72.461 12.449-103.989 27.658-7.132 3.44-13.868 6.689-20.569 9.689-4.72 2.113-5.896 8.491-2.239 12.148 11.729 11.729 14.211 31.977 1.908 44.28l-14.571 14.571c-11.693 11.68-31.55 10.826-44.267-1.905-4.217-4.218-11.844-12.295-16.963-3.811-4.385 7.264-9.699 15.104-15.325 23.404-24.065 35.504-54.011 79.682-38.696 121.926 6.066 17.96 15.35 34.79 27.621 50.131l-25.346 25.346c-4.73 4.729-.66 10.706 3.408 14.015l-15.05 15.05c-6.934 6.932 3.824 17.389 10.606 10.606l15.05-15.05c3.436 4.032 9.103 8.323 14.016 3.409l25.345-25.345c20.382 16.304 47.475 31.807 74.284 31.805 34.523-.003 69.004-23.37 97.779-42.874 8.3-5.626 16.14-10.94 23.404-15.325 8.486-5.12.404-12.748-3.813-16.965-12.729-12.715-13.582-32.573-1.905-44.262l14.574-14.574c12.299-12.3 32.55-9.823 44.28 1.908 3.657 3.657 10.035 2.481 12.148-2.239 3-6.7 18.549-38.935 22.628-48.436 3.817-8.89-9.968-14.808-13.783-5.918-3.949 9.199-16.56 35.342-18.473 39.402-17.715-11.606-42.143-10.589-57.407 4.676l-14.573 14.579c-17.079 17.097-16.698 45.429.527 64.038-5.153 3.335-10.486 6.95-16.02 10.701-34.404 23.32-73.399 49.75-108.465 36.985-16.096-5.739-31.025-13.617-44.507-24.175 4.09-4.09 7.992-8.618 12.381-12.381 10.717-9.19 25.787-9.925 36.808-18.812l15.016-12.109c6.228-5.022 6.903-14.695 1.443-20.55l32.624-32.624 4.307 4.307c6.783 6.783 17.54-3.674 10.606-10.606l-4.307-4.307 64.401-64.401c7.789 3.594 17.27 1.77 23.173-4.47l80.821-85.436c-4.553 14.442-6.942 29.827-4.722 46.92 1.619 12.416.432 25.657-3.628 40.479-2.548 9.301 11.886 13.385 14.467 3.963 4.597-16.78 5.917-31.951 4.036-46.377-3.673-28.279 7.938-52.664 19.392-76.216l69.984-73.98c4.468-1.02 8.385-3.661 11.451-7.013l11.931 11.931c6.781 6.783 17.538-3.674 10.604-10.607zm-371.015 329.42c-11.372 9.17-27.282 9.164-37.999 19.882l-43.098 43.098-6.818-6.818 36.978-36.978c6.637-6.636-3.668-17.545-10.606-10.606l-6.26 6.26c-10.679-13.639-18.778-28.516-24.11-44.33-.019-.057-.039-.113-.06-.169-12.765-35.067 13.667-74.062 36.986-108.465 3.751-5.534 7.366-10.867 10.701-16.02 18.61 17.226 46.941 17.605 64.041.524l14.574-14.574c15.266-15.265 16.283-39.69 4.676-57.407 33.271-15.67 69.403-37.086 107.671-32.101 17.081 2.217 32.459-.168 46.894-4.717l-85.422 80.807c-6.205 5.87-8.057 15.395-4.468 23.173l-64.402 64.402-4.307-4.307c-6.636-6.636-17.546 3.668-10.606 10.606l4.307 4.307-32.624 32.624c-5.838-5.445-15.513-4.803-20.55 1.443-8.742 10.841-16.833 20.457-21.635 33.819-3.272 9.105 10.845 14.178 14.116 5.073 4.114-11.447 11.057-19.383 18.551-28.676l27.686 27.687zm15.286-31.607-8.614-8.614 32.605-32.605 8.614 8.614zm34.598-51.826 63.507-63.507 8.614 8.614-63.507 63.507zm282.578-293.138c1.373 0 2.739.51 3.771 1.525l13.8 13.8c2.129 2.129 2.129 5.6 0 7.736l-13.713 13.713c-2.071 2.07-5.556 2.179-7.736 0l-12.577-12.592c-2.391-2.403-4.005-6.004-1.145-8.865l13.714-13.714c1.069-1.07 2.481-1.603 3.886-1.603z"/></g></svg>