<svg id="Capa_1" enable-background="new 0 0 511.997 511.997" height="512" viewBox="0 0 511.997 511.997" width="512" xmlns="http://www.w3.org/2000/svg"><path d="m465.618 51.333c0-28.305-23.028-51.333-51.333-51.333h-34.156c-25.773 0-46.413 23.357-43.243 48.938l1.287 10.363h-37.841c-9.674 0-9.674 15 0 15h39.704l1.517 12.212h-171.11l1.517-12.213h92.371c9.674 0 9.674-15 0-15h-90.508l1.287-10.365c3.171-25.575-17.466-48.935-43.242-48.935h-34.156c-28.306 0-51.333 23.028-51.333 51.344 0 28.305 23.028 51.333 51.333 51.333h7.468l-21.546 130.773c-10.383 61.992-1.275 125.834 43.615 172.623v73.31c0 17.983 14.63 32.614 32.614 32.614h192.279c17.983 0 32.614-14.63 32.614-32.614v-32.624c0-9.674-15-9.674-15 0v32.624c0 9.712-7.901 17.614-17.614 17.614h-192.279c-9.712 0-17.614-7.901-17.614-17.614v-59.398c31.295 25.84 70.865 40.274 113.75 40.274 67.216 0 126.325-35.411 158.116-94.725 25.712-47.975 17.406-113.228 14.251-132.065l-21.549-130.792h7.468c28.305 0 51.333-23.028 51.333-51.344zm-101.529 216.6c1.622 15.548-.164 30.292-5.203 43.756h-38.74v-210.177h23.27zm-81.705 43.756v-210.177h22.763v210.177zm-15 0h-22.764v-210.177h22.763v210.177zm-37.764 0h-22.763v-210.177h22.763zm121.977 15c-19.903 32.776-58.162 49.468-95.598 49.468-37.44 0-75.693-16.689-95.599-49.468zm46.383-239.012c-21.538 0-21.685-33.476 0-33.476h12.505c9.674 0 9.674-15 0-15h-12.505c-36.976 0-42.785 55.252-6.475 62.81l22.064 133.916c6.1 36.417 5.973 87.728-12.675 122.521-29.135 54.358-83.301 86.811-144.895 86.811-49.769 0-97.371-22.401-128.315-61.515-33.158-41.911-37.847-96.52-29.252-147.837l22.061-133.897c36.226-7.54 30.586-62.81-6.475-62.81h-12.505c-9.674 0-9.674 15 0 15h12.505c21.538 0 21.686 33.476 0 33.476h-16.306c-20.034 0-36.333-16.299-36.333-36.344 0-20.033 16.298-36.332 36.333-36.332h34.156c16.892 0 30.436 15.32 28.357 32.089l-13.246 106.635c-1.193 9.6 13.694 11.452 14.886 1.849l6.715-54.06h23.278v210.177h-38.748c-5.038-13.462-6.824-28.206-5.203-43.753l9.446-76.042c1.193-9.601-13.692-11.447-14.886-1.849l-9.454 76.111c-9.027 72.212 55.095 125 122.985 125 67.888 0 132.012-52.782 122.985-125l-27.212-219.066c-2.077-16.765 11.459-32.091 28.358-32.091h34.156c20.034 0 36.333 16.299 36.333 36.344 0 20.034-16.299 36.333-36.333 36.333z"/></svg>