<svg id="Capa_1" enable-background="new 0 0 512.014 512.014" height="512" viewBox="0 0 512.014 512.014" width="512" xmlns="http://www.w3.org/2000/svg"><path d="m509.217 55.597c1.675-2.936 1.179-6.629-1.211-9.019l-40.598-40.599c-2.39-2.39-6.083-2.885-9.02-1.212l-7.082 4.039-6.597-6.598c-6.835-6.836-17.457 3.756-10.607 10.606l3.695 3.696-9.998 5.702-6.687-6.687c-6.837-6.834-17.458 3.756-10.607 10.606l3.785 3.785c-2.677 1.526-6.107 2.837-8.314 5.045l-21.46 21.46c-26.649-15.986-57.964 15.433-42.067 42.067l-40.335 40.335c-9.561-5.736-21.912-5.736-31.474-.001l-15.054-15.06c-2.895-2.897-7.712-2.898-10.607-.001l-115.818 115.817c-2.889 2.888-2.889 7.717 0 10.607l15.058 15.057c-5.736 9.561-5.737 21.915.003 31.474l-19.87 19.878c-19.475 12.082-45.326 26.106-75.246 30.216-25.347-25.202-64.333 13.326-39.16 38.499l27.085 27.085c6.636 6.636 17.546-3.668 10.606-10.606l-27.085-27.085c-13.352-13.353 8.487-28.043 20.541-14.693l112.883 112.883c13.579 12.261-3.268 31.966-14.693 20.54l-67.803-67.802c-6.636-6.636-17.546 3.668-10.606 10.606l67.801 67.801c25.088 25.088 64.763-14.869 38.496-39.163 4.023-29.639 17.406-54.582 30.219-75.233l24.915-24.906 9.844 9.844c2.93 2.929 7.678 2.929 10.606 0l133.339-133.33c2.891-2.89 2.892-7.716.001-10.607l-9.854-9.853 112.783-112.78c.53-.53 1-1.166 1.346-1.832zm-48.369-34.964 32.504 32.504-21.28 37.312-48.537-48.538zm-103.154 51.05c6.801-6.802 18.299-5.755 23.856 2.026 4.678 6.55 3.445 15.965-2.768 21.105-6.235 5.159-15.641 4.637-21.268-1.156-5.869-6.043-5.773-16.023.18-21.975zm-60.235 82.402c6.246 6.246 5.969 16.786-.582 22.709-5.877 5.314-15.116 5.285-20.995 0-5.873-5.281-6.831-14.471-2.177-20.856 5.593-7.673 17.037-8.57 23.754-1.853zm-47.179-14.412 9.762 9.766c-5.758 9.647-5.756 21.801.005 31.452l-15.841 15.841c-26.646-15.998-57.961 15.436-42.065 42.065l-15.842 15.842c-9.56-5.738-21.913-5.743-31.474-.005l-9.753-9.752zm-6.22 84.952c-.878 8.945-9.452 15.415-18.288 13.883-8.042-1.394-13.725-9.01-12.873-17.097.881-8.368 8.489-14.647 16.876-13.954 8.613.711 15.127 8.573 14.285 17.168zm-57.939 58.138c-.995 8.822-9.471 15.144-18.207 13.661-8.424-1.43-14.231-9.687-12.805-18.094 1.371-8.083 9.044-13.829 17.186-12.932 8.524.939 14.785 8.863 13.826 17.365zm-58.199 49.228 54.073 54.081c-10.74 17.775-22.306 40.07-27.78 65.846l-92.152-92.152c25.813-5.486 48.101-17.045 65.859-27.775zm227.714-121.807-9.853-9.853c-2.929-2.929-7.678-2.929-10.606 0l-90.532 90.521c-6.933 6.933 3.822 17.389 10.606 10.607l85.228-85.218 19.706 19.706-122.732 122.723-19.706-19.706 14.012-14.012c6.637-6.636-3.668-17.545-10.606-10.606l-19.315 19.315c-2.929 2.929-2.929 7.677 0 10.606l9.862 9.862-20.22 20.213-51.828-51.836 15.185-15.191c26.142 15.661 57.833-15.803 42.064-42.065l15.842-15.842c26.338 15.828 57.832-15.848 42.064-42.064l15.851-15.851c26.576 15.863 58.041-15.375 42.056-42.056l13.57-13.57 32.565 32.565c6.843 6.841 17.444-3.77 10.607-10.606l-32.565-32.565 16.169-16.169c26.55 15.838 58.099-15.376 42.057-42.056l16.164-16.164 51.835 51.835z"/></svg>