<svg id="Capa_1" enable-background="new 0 0 511.879 511.879" height="512" viewBox="0 0 511.879 511.879" width="512" xmlns="http://www.w3.org/2000/svg"><g><path d="m510.553 56.361c2.055-2.979 1.688-7.001-.871-9.56l-44.58-44.58c-2.561-2.56-6.583-2.925-9.561-.872l-69.095 47.635c-.369.255-.729.554-1.047.872l-341.527 341.528c-27.448-18.31-59.131 20.13-35.706 43.555l38.002 38.002c6.837 6.834 17.458-3.756 10.607-10.606l-38.002-38.002c-12.135-12.135 6.671-30.944 18.805-18.806l67.419 67.419c4.837 4.837 7.197 11.486 3.276 17.788-4.459 7.167-14.724 8.376-20.703 2.397l-7.4-7.4c-6.837-6.834-17.458 3.756-10.607 10.606l7.4 7.4c23.28 23.282 61.922-8.174 43.556-35.706l87.892-87.892c6.637-6.637-3.668-17.544-10.607-10.606l-30.865 30.866-55.433-55.433 192.395-192.396 55.434 55.434-134.606 134.603c-6.637 6.637 3.668 17.544 10.607 10.606l226.711-226.71c.355-.355.69-.757.962-1.178zm-51.64-39.116 35.745 35.745-38.979 56.539-9.153-9.153c-2.927-2.929-7.676-2.929-10.606 0-2.929 2.929-2.929 7.678.001 10.606l10.216 10.217-76.196 76.196-55.434-55.434 76.196-76.195 19.076 19.076c6.637 6.635 17.547-3.667 10.607-10.606l-18.013-18.013zm-302.581 393.759-46.03 46.031-55.434-55.433 46.031-46.031z"/><path d="m99.094 412.81c3.594 3.593 9.42 3.593 13.013 0 3.594-3.593 3.594-9.42 0-13.013-3.593-3.593-9.419-3.593-13.013 0s-3.594 9.419 0 13.013z"/><path d="m157.487 341.404c-3.594 3.593-3.594 9.42 0 13.013s9.42 3.593 13.013 0c3.594-3.593 3.594-9.42 0-13.013-3.594-3.594-9.42-3.594-13.013 0z"/><path d="m192.188 306.702c-3.594 3.593-3.594 9.42 0 13.013 3.593 3.593 9.419 3.593 13.013 0 3.593-3.593 3.593-9.42 0-13.013-3.594-3.593-9.42-3.593-13.013 0z"/><path d="m239.902 285.014c3.593-3.593 3.593-9.42 0-13.013s-9.42-3.593-13.013 0-3.593 9.42 0 13.013c3.594 3.593 9.42 3.593 13.013 0z"/><path d="m274.604 250.313c3.594-3.593 3.594-9.42 0-13.013-3.593-3.593-9.419-3.593-13.013 0s-3.594 9.42 0 13.013 9.419 3.593 13.013 0z"/><path d="m309.305 215.611c3.593-3.593 3.593-9.42 0-13.013-3.594-3.593-9.42-3.593-13.013 0s-3.593 9.42 0 13.013 9.419 3.594 13.013 0z"/><path d="m397.569 90.36c-2.891-2.892-7.715-2.89-10.606 0l-17.677 17.678c-2.929 2.929-2.929 7.678 0 10.606l23.974 23.974c3.536 2.929 7.072 2.929 10.607 0l17.678-17.678c2.891-2.891 2.891-7.717-.001-10.606zm.994 36.348-13.367-13.367 7.07-7.071 13.368 13.367z"/></g></svg>