<svg id="Capa_1" enable-background="new 0 0 512 512" height="512" viewBox="0 0 512 512" width="512" xmlns="http://www.w3.org/2000/svg"><path d="m483.312 78.51c-6.063-9.906-16.618-15.82-28.234-15.82h-116.34c-33.888 0-62.668-14.864-93.138-30.602-30.546-15.775-62.13-32.088-99.243-32.088h-96.91c-14.149 0-25.66 11.506-25.66 25.65v13.04c0 14.144 11.511 25.65 25.66 25.65h21.565l2.967 20.11c-5.147-.597-10.818 2.647-9.93 8.607l10.23 68.55c.835 5.594 7.205 7.168 12.012 6.393l5.418 36.755c1.371 9.286 16.271 7.52 14.84-2.188l-5.095-34.567h31.388l28.226 191.484h-31.388l-18.415-124.923c-1.368-9.285-16.271-7.521-14.84 2.188l33.315 226.001c-13.959-.473-26.384 10.271-26.384 24.62 0 13.314 11.318 24.63 24.63 24.63h128.013c9.385 0 9.813-15 0-15h-127.64c-12.129-1.294-13.311-19.25-.374-19.25h186.095c12.108 1.307 13.309 19.25.377 19.25h-27.693c-9.385 0-9.813 15 0 15h27.693c31.839 0 31.57-49.25 0-49.25h-9.637l179.737-351.908c5.282-10.341 4.817-22.427-1.245-32.332zm-397.137-14.17h31.378l2.967 20.11h-31.378zm1.986 88.66-7.991-53.55h53.384l7.992 53.55zm69.504 6.393-10.23-68.55c-.82-5.496-6.997-7.138-11.753-6.393l-2.967-20.11c15.452 0 30.436.337 45.531 4.365l43.117 326.833-32.01 52.97-41.349-280.508c5.083.521 10.53-2.777 9.661-8.607zm155.862-34.803 12.825 97.212-22.577 37.361-18.837-142.788c9.23 3.474 18.726 6.335 28.589 8.215zm15.401 2.062c18.107 1.37 36.549.379 54.693.379l-44.852 74.221zm-60.001-16.948 22.428 170.01-22.577 37.361-29.275-221.913c9.652 4.984 19.412 10.004 29.424 14.542zm-45.648-22.831 33.08 250.753-22.577 37.361-39.733-301.182c9.834 3.693 19.503 8.209 29.23 13.068zm-60.002 287.611 2.226 15.101-31.425-.269-2.187-14.832zm-18.374 88.266-8.611-58.415 31.427.269 8.571 58.146zm326.296-358.732c0 .001 0 .001 0 0l-183.222 358.732h-89.704l26.231-43.408 2.116 16.04c.536 4.069 4.375 6.988 8.417 6.455 4.106-.542 6.996-4.31 6.455-8.417l-4.568-34.629 22.577-37.361 2.852 21.622c1.278 9.685 16.153 7.754 14.871-1.962l-5.305-40.211 22.577-37.361 2.397 18.167c.537 4.069 4.375 6.989 8.417 6.455 4.106-.542 6.997-4.31 6.455-8.417l-4.849-36.756 22.577-37.361 1.5 11.373c1.278 9.685 16.153 7.754 14.871-1.962l-3.953-29.962 59.238-98.027h34.949c9.385 0 9.813-15 0-15h-97.36c-33.883 0-62.666-14.864-93.138-30.602-31.098-16.06-63.413-32.089-99.242-32.089h-96.91c-5.878 0-10.66-4.777-10.66-10.65v-13.037c0-5.873 4.782-10.65 10.66-10.65h96.91c33.468 0 62.074 14.774 92.359 30.416 30.721 15.867 62.489 32.274 100.021 32.274h116.34c13.294 0 22.17 14.486 16.121 26.328z"/></svg>