<svg id="Capa_1" enable-background="new 0 0 512.031 512.031" height="512" viewBox="0 0 512.031 512.031" width="512" xmlns="http://www.w3.org/2000/svg"><path d="m478.011 365.807c0-29.112-14.327-48.583-42.603-57.954l1.126-59.77 26.61-99.294c5.463-1.235 9.878-5.467 11.327-10.874l2.457-9.171c2.144-7.996-2.745-16.441-10.726-18.58l-26.717-7.159c-8.08-2.163-16.414 2.648-18.579 10.727l-2.458 9.172c-1.448 5.406.263 11.291 4.376 15.087l-26.608 99.279-17.025 30.824.663-35.17 36.156-134.948c5.437-1.176 9.853-5.373 11.292-10.744l2.281-8.514c2.132-7.96-2.608-16.172-10.568-18.304l-27.15-7.275c-7.876-2.109-16.197 2.703-18.305 10.568l-2.281 8.513c-1.498 5.588.401 11.292 4.416 14.938l-36.142 134.898-12.937 23.419 4.904-39.872 38.71-157.999c9.484-1.222 16.9-9.226 17.473-18.748.566-9.402-5.773-18.118-14.846-20.549l-28.324-7.589c-20.633-5.531-34.369 22.322-17.361 35.334l-7.787 26.736c-2.624 9.011 11.657 13.616 14.401 4.194l7.453-25.59 14.14 3.79-36.71 149.837-20.565-5.512 25.398-87.212c2.624-9.011-11.657-13.617-14.401-4.194l-27.417 94.144-28.413 66.971c-1.199-.198-2.402-.367-3.609-.5v-16.881c0-.044-.006-.086-.007-.129 0-.023.002-.046.002-.069l-4.173-156.137c2.623-1.298 4.389-4.39 4.153-7.315l-5.23-64.9c-.314-3.896-3.567-6.897-7.476-6.897h-28.39c-3.909 0-7.162 3.001-7.476 6.897l-5.23 64.9c-.236 2.926 1.53 6.017 4.154 7.316l-4.175 156.136c-.001.034.003.068.002.102 0 .032-.005.064-.005.096v33.221c-15.449 12.744-25.086 31.822-25.276 51.956 0 37.086-57.672 37.189-57.672 0v-45.492c0-7.136-7.93-8.077-13.317-7.5v-140.71l22.222-27.532c3.886-4.814.35-12.21-5.836-12.21h-74.512c-6.186 0-9.722 7.396-5.836 12.21l22.222 27.532v140.71c-5.105-.812-11.938 1.231-11.938 7.5v60.563c0 93.71 76.238 169.948 169.948 169.948h151.088c29.32 0 56.98-11.318 77.886-31.871 6.693-6.579-3.517-17.575-10.516-10.696-2.743 2.696-5.622 5.206-8.618 7.528l-235.896-59.618c-9.101-2.297-13.189 12.138-3.676 14.543l221.701 56.03c-12.635 5.945-26.528 9.083-40.882 9.083h-151.087c-85.439 0-154.948-69.51-154.948-154.948v-24.052h11.231c.632 20.158-.354 39.73 9.783 58.054 8.653 15.643 27.624 36.477 68.857 46.899 8.877 2.24 13.321-12.105 3.676-14.543-31.847-8.049-65.375-29.224-66.522-65.304l-.787-25.106h10.758v8.98c0 36.816 44.89 57.322 72.698 32.958l285.646 76.545c-1.141 2.85-2.418 5.66-3.843 8.422-4.305 8.34 8.829 15.6 13.329 6.88 13.98-27.085 12.317-56.504 12.317-86.008zm-143.567-347.016c.669-2.496 3.729-4.25 6.208-3.584l28.323 7.589c2.6.697 4.214 3.398 3.628 6.015-.624 2.785-3.504 4.485-6.251 3.776l-28.323-7.588c-2.701-.724-4.308-3.509-3.585-6.208zm-277.333 89.775h43.129l-14.03 17.383c-1.076 1.334-1.664 2.996-1.664 4.71v143.357h-11.741v-143.356c0-1.714-.587-3.376-1.664-4.71zm3.757 194.465v-14.012h36.996v14.012zm401.361 52.789-257.206-68.913c13.852-11.607 33.214-16.532 50.799-11.821l170.038 45.564c.011.003.023.004.034.007 21.59 5.795 33.339 17.083 36.335 35.163zm-251.214-121.486 3.959-148.047h15.526l3.959 148.047zm-.204 15.003h23.852v9.359c-8.199.864-16.29 3.149-23.852 6.774zm114.83 28.926 24.629-44.585 14.493 3.884-.959 50.928zm75.455-182.581-34.02 126.97-11.339-3.039 34.018-126.971zm5.853 153.18 14.494 3.888-.959 50.927-38.163-10.226zm28.444-131.248c.024-.089.117-.142.208-.12l26.717 7.159c.077.021.141.13.12.208l-2.458 9.172c-.024.091-.121.142-.207.12l-26.718-7.159c-.077-.021-.141-.13-.12-.208zm1.471 25.929 11.341 3.039-24.456 91.256-11.342-3.042zm-48.881-75.915 27.111 7.208-2.21 8.476-.004-.001s-26.899-7.193-27.105-7.231zm-94.864 136.071 22.71 6.087.062.017-7.841 63.746-40.016-10.724zm-77.658-182.312h14.55l4.021 49.9h-22.592zm-34.827 325.752c7.918-15.246 3.588-32.668 13.276-47.68l269.101 72.1c0 16.715 1.35 34.206-2.349 50.62z"/></svg>