<svg id="Capa_1" enable-background="new 0 0 511.281 511.281" height="512" viewBox="0 0 511.281 511.281" width="512" xmlns="http://www.w3.org/2000/svg"><g><path d="m377.513 404.639c-3.978-1.169-8.144 1.107-9.311 5.081-14.979 50.958-62.7 86.554-116.048 86.562-65.484 0-120.85-54.183-120.85-119.92 0-46.783-24.373-80.052-49.818-106.434l42.087-42.083c6.637-6.637-3.667-17.545-10.606-10.607l-47.342 47.338c-4.285 4.285-11.677 4.303-15.977.003l-8.6-8.6c-4.404-4.404-4.404-11.57 0-15.974l90.96-90.959c4.404-4.405 11.57-4.404 15.974 0l8.6 8.6c4.362 4.363 4.363 11.62 0 15.983l-18.202 18.2c-6.637 6.637 3.667 17.545 10.606 10.607l12.898-12.897c33.971 34.021 65.101 66.893 65.101 117.503v57.1c0 36.551 57.59 36.655 57.59 0v-90.902c10.913-2.737 19.71-11.53 22.444-22.443h6.746c9.386 0 9.813-15 0-15h-6.747c-2.74-10.905-11.525-19.715-22.442-22.444v-16.003c10.911-2.728 19.715-11.541 22.443-22.448h6.746c9.386 0 9.813-15 0-15h-6.746c-2.729-10.907-11.532-19.721-22.443-22.449v-16.003c10.911-2.736 19.714-11.531 22.444-22.444h6.746c9.386 0 9.813-15 0-15h-6.747c-2.732-10.905-11.531-19.716-22.442-22.444v-13.241c0-18.102 14.604-32.859 32.65-33.117l47.142 6.375c9.3 1.265 11.734-13.55 2.01-14.864l-47.667-6.446c-16.433-2.241-34.105 9.873-42.187 23.246-7.231 11.964-6.947 24.64-6.947 38.053-13.403 3.361-23.36 15.509-23.36 29.944 0 14.43 9.957 26.574 23.36 29.934v16.013c-13.403 3.361-23.36 15.509-23.36 29.944 0 14.434 9.957 26.582 23.36 29.943v16.013c-13.403 3.361-23.36 15.509-23.36 29.944 0 14.43 9.957 26.574 23.36 29.934v90.906c0 17.168-27.59 17.308-27.59 0v-57.1c0-57.064-35.22-93.807-70.259-128.875 5.502-10.124 3.592-22.998-4.538-31.128l-8.6-8.6c-10.251-10.252-26.934-10.252-37.187 0l-90.96 90.96c-10.252 10.252-10.252 26.934 0 37.187l8.6 8.6c8.114 8.114 20.957 9.993 31.066 4.552 24.54 25.281 46.197 54.754 46.197 96.624 0 73.661 62.47 134.92 135.851 134.92 59.958-.009 113.595-40.033 130.438-97.331 1.165-3.976-1.109-8.144-5.083-9.313zm-116.299-313.128c0-8.751 7.115-15.87 15.86-15.87 8.75 0 15.869 7.119 15.869 15.87 0 8.745-7.119 15.86-15.869 15.86-8.745 0-15.86-7.115-15.86-15.86zm0 75.89c0-8.751 7.115-15.87 15.86-15.87 8.75 0 15.869 7.119 15.869 15.87 0 8.75-7.119 15.87-15.869 15.87-8.745 0-15.86-7.119-15.86-15.87zm0 75.9c0-8.751 7.115-15.87 15.86-15.87 8.75 0 15.869 7.119 15.869 15.87 0 8.745-7.119 15.86-15.869 15.86-8.745 0-15.86-7.115-15.86-15.86z"/><path d="m481.03 15.711h-48.133l-27.888-3.772c-9.299-1.268-11.735 13.549-2.01 14.864l21.892 2.961v12.527h-54.977c-18.504 0-33.266 16.902-30.762 35.243l27.011 198.203c4.554 33.331 6.82 66.985 6.82 100.625 0 9.386 15 9.813 15 0 0-19.125-.753-38.312-2.196-57.404 16.522-4.065 27.663-20.566 25.204-37.44l-21.196-145.41c-2.302-15.785-15.65-27.825-31.43-28.682l-4.35-31.92c-1.284-9.407 6.376-18.215 15.899-18.215h62.409c.023 0 .045.003.068.003h48.639c4.143 0 7.5-3.358 7.5-7.5v-26.583c0-4.142-3.358-7.5-7.5-7.5zm-106.078 122.561 21.196 145.41c1.229 8.426-3.716 16.889-11.669 19.976-.962-10.03-2.097-20.025-3.453-29.95l-20.564-150.9c7.419 1.616 13.36 7.718 14.49 15.464zm98.578-95.978h-33.636v-11.583h33.636z"/><ellipse cx="307.104" cy="304.133" rx="8.308" ry="8.308" transform="matrix(.383 -.924 .924 .383 -91.402 471.474)"/><ellipse cx="307.104" cy="349.911" rx="8.308" ry="8.308" transform="matrix(.707 -.707 .707 .707 -157.476 319.642)"/></g></svg>