<svg id="Capa_1" enable-background="new 0 0 511.021 511.021" height="512" viewBox="0 0 511.021 511.021" width="512" xmlns="http://www.w3.org/2000/svg"><path d="m474.985 252.654c0-37.585-13.146-69.867-33.67-100.653l-55.434-82.986c-5.359-8.027-17.843.293-12.473 8.332l51.756 77.48-20.83 18.023-69.986-122.726 14.877-8.983 4.113 6.158c5.357 8.027 17.843-.291 12.473-8.331l-21.38-32.415c-4.285-6.442-12.892-8.459-19.593-4.591l-13.79 7.96c-6.897 3.981-9.374 13.174-5.383 20.087l33.536 58.905c-10.105-1.89-20.411-2.85-30.805-2.85-90.759 0-166.589 75.792-166.589 166.589 0 30.109 8.262 59.72 23.557 85.383-26.482-9.861-51.016-23.969-71.998-41.454-.474-14.345-12.037-26.478-26.347-27.623-16.443-1.315-30.983 12.081-30.983 28.581v50.14c0 9.652 15 9.668 15 0v-50.14c0-19.323 27.955-16.379 27.354 2.573v180.623c1.666 19.01-27.354 21.938-27.354 2.583v-98.328c0-9.652-15-9.668-15 0v98.328c0 36.305 56.164 37.244 57.331.931 41.278-34.411 93.812-53.951 147.264-57.406l60.39-3.898c3.789-.239 7.395-1.551 10.438-3.742 43.403-.777 84.092-18.057 114.837-48.856 31.398-31.452 48.689-73.25 48.689-117.694zm-142.889-237.562 8.942 13.446-14.01 8.466-8.224-14.24zm48.846 318.757c-4.636-12.881-17.775-25.995-52.063-25.995-5.905 0-7.81-6.086-8.595-10.953h22.418c8.235 0 15.301-5.07 18.26-12.249h51.591c-5.912 19.18-16.996 36.123-31.611 49.197zm-69.598 27.727c-3.009-2.134-6.567-3.414-10.313-3.661l-26.587-1.712c-44.899-14.691-75.011-56.188-75.011-103.548 0-59.43 49.523-108.963 108.963-108.963 29.142 0 57.255 12.231 77.785 33.304h-38.766c-20.1 0-37.867 10.68-41.835 31.412h-20.809c-5.38-12.93-21.093-18.939-33.727-12.82-15.047 7.263-18.577 27.769-6.964 39.726-9.292 9.576-9.292 25.107.001 34.683-4.446 4.577-7.084 10.795-7.084 17.346 0 9.476 5.514 18.261 14.037 22.375 12.637 6.123 28.357.116 33.737-12.815h20.357c1.498 13.137 9.085 25.953 23.751 25.953 32.872 0 38.289 13.032 39.182 20.905-16.386 10.773-35.829 17.256-56.717 17.815zm104.656-125.92c.507 3.139.858 6.309 1.082 9.499h-56.102c-.698-1.7-1.645-3.297-2.808-4.759 1.137-1.434 2.083-3.024 2.791-4.739h55.037zm.027 33.997h-55.048c-.698-1.7-1.645-3.297-2.808-4.759 1.137-1.434 2.083-3.024 2.791-4.739h56.133c-.219 3.205-.575 6.373-1.068 9.498zm-129.941 12.249c-.771-3.433-2.298-6.685-4.405-9.499h61.021c6.131 0 6.123 9.499 0 9.499zm-28.522-55.065c-12.416-5.993-1.211-24.929 10.03-16.861 9.38 6.734.554 21.991-10.03 16.861zm88.496 22.458c2.886 2.886.779 8.108-3.358 8.108h-56.468c.603-3.122.603-6.377 0-9.499h56.468c1.265.001 2.462.499 3.358 1.391zm-88.485 12.235c-9.721-4.693-5.335-19.744 5.244-18.672 14.985 1.518 8.275 25.223-5.244 18.672zm0 16.936c10.573-5.123 19.403 10.13 10.02 16.866-11.17 8.017-22.481-10.851-10.02-16.866zm85.127-45.561h-61.021c2.111-2.81 3.635-6.068 4.405-9.498h56.616c6.131 0 6.123 9.498 0 9.498zm18.277-12.249c-2.999-7.306-10.388-12.249-18.277-12.249h-21.724c3.618-12.052 14.765-16.412 26.437-16.412h51.035c6.119 8.956 10.798 18.591 13.974 28.661zm-65.442-119.054c18.034-1.51 36.348.167 53.779 5.049l22.903 40.166c-19.144-11.68-41.204-18.126-63.822-18.126-67.616 0-123.963 56.356-123.963 123.963 0 39.799 19.645 77.954 52.081 101.054-16.219-1.289-32.298-4.052-48.009-8.282-20.746-26.731-31.698-58.754-31.698-92.772-.001-78.175 60.937-144.525 138.729-151.052zm4.529 306.375-60.403 3.899c-52.496 3.393-104.164 21.457-146.272 53.204v-149.32c42.133 31.696 93.779 49.873 146.285 53.235l60.379 3.888c2.65.174 4.781 2.425 4.781 5.087v24.92c0 2.605-2.138 4.921-4.77 5.087zm19.748-4.159c.429-9.038.763-18.701-.063-27.717 62.914-5.75 112.608-60.353 112.608-123.446 0-23.811-6.901-46.796-20.022-66.892l21.346-18.47c17.235 25.188 26.302 54.533 26.302 85.362 0 79.69-61.92 145.303-140.171 151.163z"/></svg>