<svg id="Capa_1" enable-background="new 0 0 511.995 511.995" height="512" viewBox="0 0 511.995 511.995" width="512" xmlns="http://www.w3.org/2000/svg"><path d="m425.417 0h-196.91c-9.652 0-9.668 15 0 15h196.91c16.242 0 16.272 25.246 0 25.246h-272.376c-16.242 0-16.272-25.246 0-25.246h36.466c9.652 0 9.668-15 0-15h-36.466c-16.383 0-29.345 14.783-27.396 30.991 1.855 15.431 15.357 24.492 30.119 24.255 39.412 51.356 75.938 108.484 86.463 179.708h-16.441c-3.629-16.365-11.748-30.33-24.047-41.021-15.075-13.104-35.383-20.321-57.181-20.321-42.53 0-85.584 28.505-85.584 82.986 0 9.652 15 9.668 15 0 0-46.711 36.589-67.986 70.584-67.986 31.811 0 65.954 19.496 68.282 62.154.014.267.03.532.042.8.057 1.273.094 108.793.094 108.793 0 48.544-77.401 50.073-77.401.751v-47.965h15.801v47.509c0 6.864 2.644 12.955 7.444 17.151 4.196 3.669 9.749 5.69 15.636 5.69 11.29 0 22.72-7.689 22.72-22.385 0-9.652-15-9.668-15 0 0 10.116-15.8 9.518-15.8-.456v-55.009c0-10.517 6.51-19.544 15.8-23.178v42.869c0 9.652 15 9.668 15 0v-52.044c0-20.704.559-40.871-16.759-55.789-20.246-17.44-53.218-16.903-73.322.467-11.331 9.791-17.32 23.599-17.32 39.933v109.033c0 52.433 45.583 87.03 96.422 80.106 42.814-5.831 74.059-39.827 74.059-83.395v-87.239c0-82.891-37.128-156.09-85.685-221.162h229.316c-40.872 54.763-76.559 117.218-84.002 186.407-1.108 10.312-1.67 20.944-1.67 31.602 0 32.084-.012 64.172-.012 96.257 0 62.434-48.299 117.957-109.956 126.403-11.183 1.531-22.457 1.434-33.509-.289-57.445-8.928-100.764-58.999-100.764-116.468v-86.802c0-9.652-15-9.668-15 0v86.802c0 72.027 61.608 132.837 133.463 132.837 76.459 0 140.766-66.534 140.766-142.483v-88.757h29.531c4.148 28.021 46.878 24.816 46.878-3.466v-38.869c0-28.281-42.729-31.486-46.878-3.466h-26.505c10.524-71.232 47.051-128.357 86.464-179.708 14.819.197 28.187-8.798 30.12-24.255 2.027-16.205-11.069-30.991-27.396-30.991zm-197.586 249.954h16.197c.483 5.192.825 10.458 1.022 15.8h-17.074c0-5.26.135-10.545-.145-15.8zm-75.754 48.19h-16.006c3.183-23.8 22.106-43.364 45.776-47.393.629 5.288.327 10.727.327 16.041-15.335 3.56-27.164 15.899-30.097 31.352zm20.941 134.796c-33.969 0-68.244-20.409-68.244-66.004v-109.033c0-26.246 20.455-38.199 39.461-38.199 12.921 0 25.918 5.285 32.841 16.694-32.53 6.63-56.501 36.092-56.501 69.246v55.465c0 29.91 23.343 51.961 53.033 51.966 29.997.005 54.368-22.341 54.368-52.718v-79.604h17.278v82.893c0 47.61-37.445 69.294-72.236 69.294zm213.026-203.087c4.724 0 8.567 3.843 8.567 8.567v38.868c0 6.989-8.281 10.948-13.755 6.726-3.549-2.737-3.376-6.728-3.376-10.76v-30.8c.001-5.752 1.059-12.601 8.564-12.601zm-23.567 20.101v15.8h-29.071c.197-5.342.539-10.609 1.022-15.8z"/></svg>