<svg id="Capa_1" enable-background="new 0 0 511.588 511.588" height="512" viewBox="0 0 511.588 511.588" width="512" xmlns="http://www.w3.org/2000/svg"><path d="m487.861 162.385-155.499-155.5c-10.84-10.84-28.36-8.316-37.171 3.615-8.874 12.016-3.908 25.03 5.575 34.513-3.147 52.634-36.378 96.428-66.881 136.97-27.044 35.969-98.701 134.427-108.085 147.268l-70.32 70.32c-14.792-12.804-38.64-1.903-38.64 17.692 0 6.244 2.431 12.113 6.846 16.528 6.809 6.809 17.426-3.788 10.606-10.606-7.619-7.619 4.211-19.472 11.843-11.843l38.065 38.065c7.619 7.619-4.211 19.472-11.843 11.843l-18.103-18.103c-6.809-6.809-17.426 3.788-10.606 10.606l18.103 18.103c21.058 21.06 54.016-11.052 33.457-32.634l21.371-21.37c1.004 1.168 75.925 76.202 75.925 76.202 23.372 23.373 62.531 23.382 85.906.007l144.61-144.611c23.409-23.408 23.4-62.5-.007-85.906l-46.325-46.324c22.534-12.501 47.12-21.681 73.028-23.255 9.506 9.506 22.487 14.445 34.53 5.591 11.953-8.788 14.442-26.346 3.615-37.171zm-279.539 105.557 18.477 18.477-142.186 142.185-18.477-18.477zm95.26-32.634c4.953-.997 10.226.055 14.404 2.902-4.623 3.423-60.766 45.272-84.081 62.315l60.075-60.076c2.724-2.723 6.081-4.432 9.602-5.141zm122.226 71.193c.001 12.219-4.756 23.705-13.394 32.343l-144.61 144.611c-17.833 17.833-46.855 17.832-64.693-.007 0 0-74.927-75.036-75.9-76.227l22.326-22.326c1.253 6.439 4.367 12.561 9.281 17.475l52.581 52.581c13.218 13.218 34.724 13.218 47.941 0l76.836-76.836c6.81-6.809-3.787-17.426-10.606-10.606l-76.836 76.836c-7.274 7.273-19.452 7.275-26.729 0l-52.581-52.581c-6.448-6.448-7.324-16.607-2.198-24.074 12.135-8.865 156.494-115.074 161.765-118.96l44.314 44.314c7.274 7.275 7.276 19.452 0 26.729l-22.75 22.75c-6.81 6.809 3.787 17.426 10.606 10.606l22.75-22.75c13.218-13.218 13.218-34.724 0-47.942l-52.58-52.58c-13.226-13.226-34.738-13.231-47.956-.014l-45.969 45.969-18.477-18.477 55.989-55.989c17.605-17.604 47.088-17.598 64.693.007l72.797 72.796c8.64 8.643 13.4 20.131 13.4 32.352zm51.447-120.759c-3.496 4.068-9.705 4.842-13.649.898l-110.76-110.759c-6.809-6.809-17.426 3.788-10.606 10.606l93.811 93.811c-24.989 3.607-48.595 13.394-70.381 25.901l-15.453-15.453c-23.686-23.688-62.224-23.69-85.906-.007l-61.292 61.292-8.774 8.774c17.03-23.303 34.311-46.774 51.63-69.808l.088-.118c22.894-30.448 46.567-61.933 59.744-98.046 4.221-11.558 7.109-22.844 8.734-34.146l6.01 6.01c6.809 6.809 17.426-3.788 10.606-10.606l-22.95-22.95c-8.434-8.432 5.22-22.078 13.649-13.648l155.5 155.5c3.446 3.445 3.452 9.296-.001 12.749z"/></svg>