<svg id="Capa_1" enable-background="new 0 0 511.674 511.674" height="512" viewBox="0 0 511.674 511.674" width="512" xmlns="http://www.w3.org/2000/svg"><g><path d="m488.168 105.104c-31.336-31.337-83.597-31.336-114.933 0l-192.265 192.265-48.438-48.438c44.128-39.361 95.154-71.933 154.867-79.823 6.049-.8 8.636-8.424 4.32-12.739l-58.952-58.952c-6.857-6.857-17.464 3.75-10.606 10.606l48.614 48.614c-86.935 16.997-147.586 80.419-208.521 139.406-9.955 9.636-21.239 20.558-24.198 36.916-1.678 9.278 13.008 12.36 14.761 2.67 1.019-5.634 3.585-10.498 6.993-15.028l8.587 8.587c-9.69 19.613 11.986 41.02 31.419 31.419l8.784 8.784c-13.569 10.694-34.109 9.641-46.315-2.636-6.836-6.877-17.474 3.7-10.637 10.576 21.007 21.129 53.228 17.556 73.069-2.497l259.124-259.124c25.55-25.55 68.187-25.535 93.734.014 25.542 25.544 25.542 68.179 0 93.72l-58.504 58.504c-6.81 6.809 3.787 17.426 10.606 10.606l58.504-58.504c31.336-31.333 31.317-83.616-.013-114.946zm-317.804 202.872-16.735 16.735-49.307-49.307c5.644-5.514 11.343-10.978 17.117-16.353zm-76.721-22.038 49.379 49.379-23.642 23.642-8.958-8.958c9.726-19.685-11.734-41.143-31.418-31.419l-9.076-9.076c.911-.892 18.373-18.252 23.715-23.568zm-10.22 59.645c-7.74-7.739 4.235-19.714 11.974-11.975 7.74 7.739-4.235 19.714-11.974 11.975z"/><path d="m392.674 294.348-114.877 114.876-15.641-15.641 199.779-199.779c16.039-16.039 17.099-42.497 2.426-59.781-16.488-19.423-46.844-20.69-64.871-2.664l-261.672 261.672c-27.727 27.727-74.006 27.747-101.753 0-16.6-16.599-24.062-40.333-19.96-63.488 4.139-23.367 20.392-39.191 37.6-55.945 57.888-56.363 116.566-119.455 132.567-201.464l10.435 10.435c6.856 6.858 17.464-3.75 10.606-10.606l-20.775-20.775c-4.315-4.316-11.938-1.729-12.739 4.32-1.257 9.51-3.129 19-5.565 28.211-19.019 72.16-72.982 128.492-124.992 179.132-18.153 17.674-36.925 35.95-41.907 64.076-4.954 27.974 4.064 56.651 24.125 76.71 33.479 33.48 89.482 33.485 122.966 0l80.16-80.16 41.232 41.232-18.722 18.721c-8.802-5.418-20.507-4.03-27.813 3.276l-8.011 8.011c-8.821 8.821-8.821 23.175 0 31.996l29.385 29.385c8.706 8.706 23.284 8.712 31.996 0l8.011-8.011c7.532-7.532 8.61-19.086 3.28-27.797l115.336-115.336c6.81-6.809-3.787-17.425-10.606-10.606zm-112.251-22.709 41.229 41.229-41.232 41.232-41.229-41.229zm10.607-10.607 119.067-119.067c11.605-11.605 30.932-11.117 42.041.886 10.461 11.302 10.079 29.457-.81 40.346l-119.066 119.067zm-16.974 176.449-8.011 8.011c-2.973 2.973-7.811 2.973-10.783 0l-29.385-29.385c-2.973-2.973-2.973-7.81 0-10.783l8.011-8.011c2.911-2.911 7.865-2.917 10.783 0l29.385 29.385c2.973 2.973 2.973 7.81 0 10.783z"/></g></svg>