<svg id="Capa_1" enable-background="new 0 0 512.161 512.161" height="512" viewBox="0 0 512.161 512.161" width="512" xmlns="http://www.w3.org/2000/svg"><g><path d="m495.79 152.614-42.387-42.387 19.559-19.559c22.683 8.239 41.835-21.288 24.585-38.538l-19.021-19.021c-17.197-17.197-46.881 1.634-38.537 24.59l-23.499 23.497c-20.075-6.966-42.813-1.937-58.029 13.278l-140.02 140.031c-54.119 37.572-108.378 98.596-177.793 103.608-21.625-21.311-55.427 11.146-33.579 32.995l107.741 107.742c21.545 21.547 55.18-12.516 32.988-33.586 2.534-35.206 23.944-71.038 49.132-105.588.764 21.903 9.638 42.391 25.222 57.975 29.379 29.379 78.396 29.38 107.777 0l20.23-20.23c19.864 15.275 49.783-.471 48.245-25.613 17.835 1.104 32.893-13.973 31.781-31.819 25.105 1.576 41.035-28.323 25.656-48.25l39.948-39.947c21.829-21.83 21.829-57.349.001-79.178zm-39.783-108.898c3.97-3.289 7.94-3.289 11.91 0l19.021 19.021c7.699 7.698-4.209 19.606-11.91 11.911l-19.047-19.05c-3.256-3.286-3.249-8.608.026-11.882zm-169.122 143.558 11.764 11.764-21.193 21.193-11.764-11.764zm22.371 1.157-11.764-11.764 21.213-21.213 11.763 11.763zm59.813-83.35c9.3-9.301 22.438-13.409 35.08-11.544l-63.073 63.073-11.768-11.768zm-113.984 113.993 11.763 11.764-21.213 21.213-11.764-11.764zm-117.603 249.169c-3.162 3.162-8.904 3.161-12.065 0l-107.741-107.741c-9.615-9.615 6.588-17.559 14.757-9.391l102.375 102.375c3.809 3.81 7.757 9.673 2.674 14.757zm-83.397-116.693c65.675-11.615 116.061-64.124 168.332-101.5l12.609 12.61c-13.793 13.793-27.065 26.96-33.558 46.025-30.141 39.161-59.59 80.646-67.102 123.147zm178.674-65.409 216.275-216.275 11.757 11.76-213.458 213.458c-18.979 18.979-21.269 50.272-4.955 71.735l-14.648 14.648c-22.713-27.968-20.403-69.893 5.029-95.326zm141.288-96.559 43.568-43.568 28.085 28.085c11.524 11.532 11.849 29.967.722 41.096l-23.377 23.385zm-116.118 172.292c-15.312-15.312-15.302-40.872.008-56.182l10.063-10.063 48.998 48.997-17.976 17.967c-11.13 11.132-29.567 10.809-41.093-.719zm61.393 25.17c-21.51 21.51-56.951 23.783-80.94 4.984l14.68-14.68c17.331 12.389 41.355 11.065 56.566-4.146l17.977-17.968 11.764 11.764zm59.754-22.773c-7.395 3.697-13.941 7.28-21.216.004l-79.249-79.249 21.206-21.212 79.258 79.259c5.787 5.781 5.787 15.417.001 21.198zm31.807-31.798c-5.526 5.526-15.648 5.539-21.194 0l-79.266-79.267 21.203-21.203 79.254 79.253c5.841 5.85 5.843 15.366.003 21.217zm31.809-31.819c-5.32 6.206-15.769 5.435-21.214-.012l-79.245-79.244 21.212-21.205 79.247 79.248c5.848 5.848 5.848 15.364 0 21.213zm2.724-39.703-11.765-11.765 23.379-23.385c16.973-16.974 16.65-44.923-.721-62.306l-28.087-28.087 14.574-14.573 42.386 42.386c15.98 15.98 15.98 41.983 0 57.964z"/><circle cx="215.797" cy="200.311" r="9.49"/><circle cx="247.261" cy="168.847" r="9.49"/><circle cx="278.725" cy="137.383" r="9.49"/></g></svg>