<svg id="Capa_1" enable-background="new 0 0 511.143 511.143" height="512" viewBox="0 0 511.143 511.143" width="512" xmlns="http://www.w3.org/2000/svg"><g><path d="m481.897 139.306c18.641-29.619 17.572-70.673-6.072-97.248-14.49-16.297-33.274-29.178-52.889-36.269-40.406-14.628-84.441.39-104.926 38.876l-35.941 67.488c-14.105 25.871-10.837 56.988 8.004 79.429-11.278 25.426-22.722 50.713-34.525 75.902-11.77-25.179-23.193-50.455-34.463-75.861 19.839-21.636 21.529-54.057 8.03-79.379l-31.972-60.038c-5.795-10.142-11.038-19.957-19.525-28.311-6.912-6.802-17.432 3.888-10.521 10.69 5.413 5.329 9.939 11.514 13.39 18.28l-137.859 79.588c-13.024-19.564-15.422-46.356-4.822-67.482 16.539-32.973 65.242-58.644 101.521-47.22 9.25 2.912 13.754-11.394 4.506-14.308-43.348-13.652-99.499 15.065-119.433 54.802-15.099 30.092-7.374 61.142 9.34 88.301l36.008 57.708c15.228 25.126 43.971 37.82 72.76 32.734 25.722 35.301 51.093 70.802 75.454 107.071-11.76 22.011-23.205 41.045-34.916 58.067-5.972 8.719 5.142 18.607 12.356 8.503 10.749-15.623 21.257-32.86 31.95-52.404 6.712 10.288 13.251 20.707 19.521 31.269-7.281 12.696-46.938 94.395-46.938 94.395-13.619 28.347-57.287 3.465-39.307-22.713l14.347-20.854c5.496-7.99-6.861-16.49-12.357-8.502l-14.351 20.859c-29.665 43.192 42.629 84.664 65.195 37.692 0 0 36.781-76.162 42.11-85.771 5.568 9.971 42.146 85.739 42.146 85.739 22.801 47.769 96.206 3.674 65.24-37.614 0 0-59.497-89.456-69.819-108.721 24.363-36.258 49.783-71.745 75.502-107.042 28.046 6.231 58.751-8.127 72.924-33.016zm-95.206-124.4c10.587-.623 21.208 1.392 31.143 4.988 17.058 6.167 34.109 17.877 46.783 32.132 19.39 21.793 19.825 56.546 3.898 80.39l-137.855-79.594c10.431-21.061 32.435-36.533 56.031-37.916zm45.818 175.219-17.445-10.072 35.095-18.217zm-116.369-67.185-17.455-10.078 15.684-29.451zm12.601-53.906 51.497 29.732-49.025 25.451zm60.138 42.147.307 6.855c.434 9.683 15.419 9.018 14.984-.672l-.22-4.904 51.495 29.73-49.021 25.446-.683-15.213c-.432-9.68-15.419-9.019-14.984.672l.595 13.268-51.498-29.732zm-83.249 95.31c15.922 12.543 34.379 20.81 47.898 25.741l-21.807 29.928-45.017-25.991 14.714-33.171c1.361 1.177 2.753 2.344 4.212 3.493zm-226.993-16.326-17.663-28.308 35.118 18.23zm103.78-121.094-2.475 55.176-49.021-25.445zm-75.212 43.424-2.471 55.178-49.021-25.448zm15.073-1.28 49.026 25.448-51.499 29.733zm74.508-27.744 15.674 29.43-17.445 10.072zm-87.333 136.104c-8.66-3.543-16.431-9.419-22.483-16.901l132.174-76.311c7.881 20.311 3.702 42.873-11.155 57.213-.748.489-1.389 1.093-1.904 1.783-9.518 8.697-27.42 23.274-48.455 31.675-15.14 6.048-32.624 8.912-48.177 2.541zm53.743 11.389c18.825-7.519 35.212-19.369 46.241-28.611l15.015 33.85-45.018 25.991-21.363-29.32c1.696-.589 3.403-1.222 5.125-1.91zm187.388 230.238c17.69 25.907-25.594 51.454-39.327 22.681 0 0-40.888-83.95-48.96-97.767-19.391-39.489-49.199-75.567-74.159-111.622l42.606-24.598c15.248 32.358 28.613 66.989 47.242 97.581 11.084 20.928 72.598 113.725 72.598 113.725zm-65.35-132.303c-7.425-14.503-14.499-29.158-21.401-43.771 5.532-11.753 11.018-23.527 16.571-35.27l42.606 24.599c-4.146 5.971-29.371 42.072-37.776 54.442zm83.869-107.298c-.82-.42-1.69-.679-2.571-.777-12.301-3.903-33.856-12.122-51.621-26.115-21.128-16.643-33.12-41.773-22.893-68.375l132.174 76.31c-13.642 16.969-35.25 24.632-55.089 18.957z"/><path d="m357.391 56.135c3.587 2.071 8.174.842 10.245-2.745s.842-8.174-2.745-10.245-8.174-.842-10.245 2.745-.842 8.174 2.745 10.245z"/><path d="m388.677 74.197c3.587 2.071 8.174.842 10.245-2.745s.842-8.174-2.745-10.245-8.174-.842-10.245 2.745-.842 8.174 2.745 10.245z"/><path d="m419.962 92.26c3.587 2.071 8.174.842 10.245-2.745s.842-8.174-2.745-10.245-8.174-.842-10.245 2.745-.842 8.174 2.745 10.245z"/><path d="m321.216 156.132c-3.587-2.071-8.174-.842-10.245 2.745s-.842 8.174 2.745 10.245 8.174.842 10.245-2.745.842-8.174-2.745-10.245z"/><ellipse cx="348.752" cy="180.69" rx="7.5" ry="7.5" transform="matrix(.205 -.979 .979 .205 100.296 484.903)"/><path d="m383.787 192.257c-3.587-2.071-8.174-.842-10.245 2.745s-.842 8.174 2.745 10.245 8.174.842 10.245-2.745.842-8.174-2.745-10.245z"/><path d="m451.248 110.323c3.587 2.071 8.174.842 10.245-2.745s.842-8.174-2.745-10.245-8.174-.842-10.245 2.745c-2.072 3.587-.842 8.174 2.745 10.245z"/><path d="m51.47 96.904c-3.587 2.071-4.816 6.658-2.745 10.245s6.658 4.816 10.245 2.745 4.816-6.658 2.745-10.245-6.658-4.816-10.245-2.745z"/><path d="m82.755 78.841c-3.587 2.071-4.816 6.658-2.745 10.245s6.658 4.816 10.245 2.745 4.816-6.658 2.745-10.245c-2.07-3.587-6.657-4.816-10.245-2.745z"/><ellipse cx="117.791" cy="67.274" rx="7.5" ry="7.5" transform="matrix(.931 -.364 .364 .931 -16.414 47.54)"/><path d="m137.727 193.967c-2.071-3.587-6.658-4.816-10.245-2.745s-4.816 6.658-2.745 10.245 6.658 4.816 10.245 2.745c3.588-2.071 4.817-6.658 2.745-10.245z"/><path d="m166.268 186.149c3.587-2.071 4.816-6.658 2.745-10.245s-6.658-4.816-10.245-2.745-4.816 6.658-2.745 10.245 6.658 4.816 10.245 2.745z"/><path d="m197.553 168.086c3.587-2.071 4.816-6.658 2.745-10.245s-6.658-4.816-10.245-2.745-4.816 6.658-2.745 10.245 6.658 4.816 10.245 2.745z"/><path d="m145.326 42.716c-3.587 2.071-4.816 6.658-2.745 10.245s6.658 4.816 10.245 2.745 4.816-6.658 2.745-10.245c-2.07-3.587-6.657-4.816-10.245-2.745z"/></g></svg>