<svg id="Capa_1" enable-background="new 0 0 511.81 511.81" height="512" viewBox="0 0 511.81 511.81" width="512" xmlns="http://www.w3.org/2000/svg"><g><path d="m510.258 462.446-42.598-54.91-24.775-42.421c-4.89-8.374-17.844-.809-12.953 7.564l21.241 36.369-13.467 7.865-131.565-225.266 13.467-7.865 92.559 158.479c4.89 8.375 17.844.809 12.953-7.564l-96.341-164.956c-2.089-3.577-6.683-4.783-10.259-2.694l-26.42 15.43c-3.731 2.676-4.629 6.095-2.694 10.259l138.888 237.804 26.893 64.065c1.783 4.248 6.961 5.756 10.697 3.574l42.23-24.66c4.061-3.043 4.775-6.735 2.144-11.073zm-44.552 18.467-21.232-50.581 15.063-8.797 33.626 43.345z"/><path d="m355.758 359.609-131.72-225.39c-3.077-5.267-7.237-9.701-12.156-13.053v-38.408c0-9.386-15-9.813-15 0v142.235c0 9.757-15.6 10.204-15.6 0v-190.65c0-9.561 15.6-9.585 15.6 0v15.122c0 9.386 15 9.813 15 0v-15.122c0-28.979-45.6-28.904-45.6 0v86.819c-4.921 3.359-9.082 7.794-12.156 13.057l-59.022 100.995c-4.87 8.333 8.075 15.916 12.951 7.568l58.228-99.635v44.8l-108.017 195.322c-6.712 12.16 2.362 27.424 16.187 27.424h208.979c15.521 0 15.363 23.9 0 23.9h-243.06c-19.301 0-31.78-21.631-22.004-38.346l72.457-123.982c4.87-8.333-8.073-15.916-12.951-7.568l-72.456 123.98c-15.541 26.575 4.275 60.916 34.954 60.916h243.06c13.348 0 25.021-10.241 26.729-23.487 2.048-15.886-10.706-30.413-26.729-30.413h-208.979c-2.634 0-4.332-2.86-3.057-5.17l94.887-171.58v6.051c0 12.572 10.228 22.8 22.8 22.8s22.8-10.228 22.8-22.8v-6.047l93.591 169.263c18.234 32.895 69.3 3.965 50.284-28.601zm-12.893 21.526c-5.307 9.252-19.089 9.154-24.269-.191l-106.714-192.997v-44.8l130.925 224.03c3.442 1.721.742 12.765.058 13.958z"/></g></svg>