<svg id="Capa_1" enable-background="new 0 0 512 512" height="512" viewBox="0 0 512 512" width="512" xmlns="http://www.w3.org/2000/svg"><path d="m512 243.768c0-39.271-31.954-71.22-71.23-71.22h-329.94c-20.238 0-37.078-18.986-34.363-39.107 2.286-16.941 17.709-30.212 35.113-30.212 9.386 0 9.813-15 0-15-24.756 0-46.709 18.979-49.978 43.206-3.915 29.018 20.008 56.113 49.228 56.113h329.94c31.005 0 56.23 25.22 56.23 56.22v72.471h-14.69v-66.471c0-26.208-21.326-47.529-47.54-47.529h-322.87c-31.917 0-60.377-24.336-64.792-55.404-5.35-37.646 25.769-73.296 63.722-73.296h264.737v14.69h-225.568c-9.386 0-9.813 15 0 15h225.568c-.241 4.815 2.836 9.822 8.542 9.02l63.831-8.957c3.704-.52 6.458-3.688 6.458-7.427v-29.954c0-3.739-2.754-6.907-6.458-7.427l-63.831-8.958c-5.276-.74-8.97 4.126-8.542 9.013h-264.737c-46.966 0-85.188 43.866-78.573 90.407 5.493 38.648 40.83 68.293 79.643 68.293h322.87c17.943 0 32.54 14.593 32.54 32.529v66.473h-16.27v-13.732c0-16.282-13.247-29.529-29.53-29.529h-325c-9.386 0-9.813 15 0 15h325c8.012 0 14.53 6.518 14.53 14.529v130.51c0 9.933-9.124 15.436-18.21 14.53v-76.216c0-9.386-15-9.813-15 0v76.216h-37.8v-55.87c5.26.455 12.5-.53 12.5-7.5v-52.939h25.3v7.345c0 9.386 15 9.813 15 0v-14.845c0-4.143-3.358-7.5-7.5-7.5h-369.62c-4.142 0-7.5 3.357-7.5 7.5v123.81c-9.086.905-18.21-4.597-18.21-14.53v-130.51c0-8.012 6.518-14.529 14.53-14.529h32.137c9.386 0 9.813-15 0-15h-32.137c-16.283-.002-29.53 13.245-29.53 29.528v130.51c0 16.283 13.247 29.53 29.53 29.53h391.98c16.283 0 29.53-13.247 29.53-29.53v-72.089h53.46c4.142 0 7.5-3.357 7.5-7.5v-29.688-.001-.001zm-72.602-171.336v16.912l-48.831 6.853v-30.618zm-76.868 304.247h-10v-45.439h10zm-52.8 0h-10v-45.439h10zm-52.81 0h-10v-45.439h10zm-105.61 0h-10v-45.439h10zm-52.8 0h-10v-45.439h10zm-50.3-45.44h25.3v52.939c0 6.772 7.25 8.045 12.5 7.5v55.87h-37.8zm52.8 60.44c5.26.455 12.5-.53 12.5-7.5v-52.939h12.8v52.939c0 6.772 7.25 8.045 12.5 7.5v55.87h-37.8zm52.8 0c5.26.455 12.5-.53 12.5-7.5v-52.939h25.31v116.31h-37.81zm52.81-60.44h25.3v52.939c0 6.772 7.25 8.045 12.5 7.5v55.87h-37.8zm52.8 60.44c5.26.455 12.5-.53 12.5-7.5v-52.939h12.81v52.939c0 6.772 7.25 8.045 12.5 7.5v55.87h-37.81zm52.81 0c5.26.455 12.5-.53 12.5-7.5v-52.939h12.8v52.939c0 6.772 7.25 8.045 12.5 7.5v55.87h-37.8zm184.77-45.749h-45.96v-14.688h45.96z"/></svg>