<svg id="Capa_1" enable-background="new 0 0 511.604 511.604" height="512" viewBox="0 0 511.604 511.604" width="512" xmlns="http://www.w3.org/2000/svg"><g><path d="m504.405 279.998c0-9.386-15-9.813-15 0v99.193h-467.208v-254.82c0-60.308 52.55-109.371 117.141-109.371s117.141 49.063 117.141 109.371c0 27.591 23.715 50.037 52.866 50.037h103.926c41.98 0 76.134 31.815 76.134 70.921 0 9.386 15 9.813 15 0 0-47.377-40.883-85.921-91.134-85.921h-103.926c-20.879 0-37.866-15.718-37.866-35.037 0-68.578-59.278-124.371-132.141-124.371s-132.141 55.793-132.141 124.371l.005 299.296c0 9.386 15 9.813 15 0v-29.476h14.37l.004 96.087c0 8.889-14.374 8.889-14.374 0v-31.278c0-9.386-15-9.813-15 0v31.278c0 25.913 39.313 29.373 44.007 3.952l409.19-.005c4.689 25.425 44.008 21.968 44.008-3.947zm-414.893 199.232h-37.936v-85.039h24.606v42.519c0 7.141 7.94 8.077 13.33 7.5zm13.33-50.02h-11.66v-35.019h11.66zm52.93 0h-11.66v-35.019h11.66zm105.86 0h-11.66v-35.019h11.66zm52.94 0h-11.67v-35.019h11.67zm52.93 0h-11.66v-35.019h11.66zm54.6-35.019h37.931v85.034h-37.931zm-317.59 50.019c5.406.487 13.33-.168 13.33-7.5v-42.519h11.27v42.519c0 7.141 7.94 8.077 13.33 7.5v35.021h-37.93zm52.93 0c5.406.487 13.33-.168 13.33-7.5v-42.519h24.6v85.039h-37.93zm52.93-50.019h24.6v42.519c0 7.141 7.94 8.077 13.33 7.5v35.021h-37.93zm52.93 50.019c5.406.487 13.33-.168 13.33-7.5v-42.519h11.27v42.519c0 7.141 7.94 8.077 13.33 7.5v35.021h-37.93zm52.93 0c5.407.487 13.34-.164 13.34-7.5v-42.519h11.27v42.519c0 7.141 7.94 8.077 13.33 7.5v35.021h-37.94zm52.94 0c5.406.487 13.33-.168 13.33-7.5v-42.519h24.599v85.039h-37.929zm120.235 46.068c0 8.888-14.374 8.889-14.374 0v-96.087h14.374z"/><path d="m444.998 350.926h-324.196c-9.386 0-9.813 15 0 15h324.195c29.495 0 29.495-45.75 0-45.75h-379.458c-29.495 0-29.495 45.75 0 45.75h18.139c9.386 0 9.813-15 0-15h-18.139c-9.851 0-10.302-15.75 0-15.75h379.459c9.851 0 10.302 15.75 0 15.75z"/></g></svg>