<svg id="Capa_1" enable-background="new 0 0 512 512" height="512" viewBox="0 0 512 512" width="512" xmlns="http://www.w3.org/2000/svg"><g><path d="m504.5 60.418h-497c-4.142 0-7.5 3.357-7.5 7.5v376.163c0 4.143 3.358 7.5 7.5 7.5l293.72.001c9.386 0 9.813-15 0-15h-5.5v-39.6c5.747 0 15.73 1.27 15.73-7.5v-47.09h15.979v47.09c0 8.767 9.975 7.5 15.721 7.5v39.6h-6.216c-9.386 0-9.813 15 0 15l167.565-.001c4.143 0 7.5-3.357 7.5-7.5v-224.651c0-9.386-15-9.813-15 0v69.6h-13.96v-101.687c0-4.143-3.357-7.5-7.5-7.5h-346.639c-4.142 0-7.5 3.357-7.5 7.5v101.687h-106.4v-133.332h482v31.644c0 9.386 15 9.813 15 0v-119.424c0-4.143-3.357-7.5-7.5-7.5zm-419.32 336.564h8.23v39.6h-47.45v-94.189h31.72v47.09c0 4.142 3.358 7.499 7.5 7.499zm7.5-15v-39.59h16.45v39.59zm15.73 15c5.745 0 15.72 1.267 15.72-7.5v-47.09h15.99v47.09c0 8.77 9.984 7.5 15.73 7.5v39.6h-47.44zm46.71-15v-39.59h16.45v39.59zm15.73 15c5.745 0 15.72 1.267 15.72-7.5v-47.09h31.71v94.189h-47.43zm109.87 39.6h-47.44v-94.189h31.72v47.09c0 8.767 9.974 7.5 15.72 7.5zm15.73-54.6h-16.45v-39.59h16.45zm45.98 0v-39.59h16.45v39.59zm15.72 15c5.746 0 15.729 1.27 15.729-7.5v-47.09h15.99v47.09c0 8.77 9.983 7.5 15.729 7.5v39.6h-47.448zm46.72-15v-39.59h16.45v39.59zm15.73 15c5.745 0 15.721 1.267 15.721-7.5v-47.09h31.72v94.189h-47.441zm19.211-155.049v-47.09h28.229v94.187h-42.78v-39.597c5.593.621 14.551.232 14.551-7.5zm-15-7.5h-14.101v-39.59h14.101zm-42.771 7.5v-47.09h13.67v47.09c0 7.732 8.957 8.121 14.55 7.5v39.597h-42.77v-39.597c5.593.621 14.55.232 14.55-7.5zm-15-7.5h-14.101v-39.59h14.101zm-21.601 15h7.051v39.597h-42.77v-94.187h28.22v47.09c-.001 4.142 3.357 7.5 7.499 7.5zm-78.939-7.5v-47.09h28.22v94.187h-42.77v-39.597c5.593.621 14.55.232 14.55-7.5zm-15-7.5h-14.1v-39.59h14.1zm-42.78 7.5v-47.09h13.68v47.09c0 7.733 8.957 8.121 14.55 7.5v39.597h-42.77v-39.597c5.592.621 14.54.228 14.54-7.5zm-15-7.5h-14.1v-39.59h14.1zm-57.32-39.59h28.22v47.09c0 7.736 8.966 8.122 14.56 7.5v39.597h-42.78zm360.6 109.186v132.552h-13.96v-101.688c0-4.143-3.357-7.5-7.5-7.5h-437.08c-4.142 0-7.5 3.357-7.5 7.5v101.688h-15.96v-132.552zm-482-228.611h482v65.28h-482z"/><path d="m348.61 88.058h-185.22c-4.142 0-7.5 3.357-7.5 7.5v25c0 4.143 3.358 7.5 7.5 7.5h185.22c4.143 0 7.5-3.357 7.5-7.5v-25c0-4.143-3.357-7.5-7.5-7.5zm-7.5 25h-170.22v-10h170.22z"/><path d="m38.462 179.843c-4.142 0-7.5 3.357-7.5 7.5v83.521c0 4.143 3.358 7.5 7.5 7.5h61c4.142 0 7.5-3.357 7.5-7.5v-83.521c0-4.143-3.358-7.5-7.5-7.5zm7.5 15h46v43.521h-46zm45.999 68.52h-46v-10h46z"/><circle cx="54.074" cy="108.248" r="7.5"/><circle cx="85.18" cy="108.248" r="7.5"/><circle cx="116.286" cy="108.248" r="7.5"/><path d="m463.334 100.748h-72.514c-9.386 0-9.813 15 0 15h72.514c9.386 0 9.813-15 0-15z"/></g></svg>