<svg id="Capa_1" enable-background="new 0 0 513 513" height="512" viewBox="0 0 513 513" width="512" xmlns="http://www.w3.org/2000/svg"><g><path d="m291.167 261.139h-69.331c-9.386 0-9.813 15 0 15h69.331c9.386 0 9.813-15 0-15z"/><circle cx="184.64" cy="204.971" r="7.5"/><circle cx="184.64" cy="268.638" r="7.5"/><circle cx="184.64" cy="236.805" r="7.5"/><path d="m513 195.066c0-12.512-9.972-22.69-22.229-22.69h-62.451v-30.89c0-4.143-3.357-7.5-7.5-7.5h-72.11v-12.24c0-11.971-9.739-21.71-21.71-21.71h-141c-11.971 0-21.71 9.739-21.71 21.71v12.24h-72.11c-4.143 0-7.5 3.357-7.5 7.5v30.89h-61.99c-12.511 0-22.69 10.179-22.69 22.69l.003 196.79c0 11.639 9.469 21.107 21.107 21.107h470.782c11.639 0 21.107-9.469 21.107-21.107v-196.79zm-15 0v93.71h-99.75v-101.4h92.521c3.986 0 7.229 3.45 7.229 7.69zm-99.75 148.3v-39.59h15.07v39.59zm-59.72 0v-39.59h15.079v39.59zm-208.77-54.59v-101.4h253.49v101.4zm149.06 54.59v-39.59h15.08v39.59zm-119.43 0v-39.59h15.08v39.59zm-59.67 54.6h-44.717v-94.189h29.677v47.09c0 7.91 9.386 8.13 15.04 7.5zm-.04-54.6v-39.59h15.08v39.59zm313.64-194.38v23.39h-64.61v-23.39zm-234.03-27.24c0-3.7 3.01-6.71 6.71-6.71h141c3.7 0 6.71 3.01 6.71 6.71v50.63h-154.42zm-79.61 27.24h64.61v23.39h-64.61zm-84.68 46.08c0-4.24 3.449-7.69 7.689-7.69h92.07v101.4h-99.759zm.003 196.79v-88.079h24.997v94.187h-18.89c-3.367 0-6.107-2.74-6.107-6.108zm99.717-33.49c5.654.63 15.04.41 15.04-7.5v-47.09h14.63v47.09c0 7.91 9.386 8.13 15.04 7.5v39.6h-44.71zm59.71 0c5.654.63 15.04.41 15.04-7.5v-47.09h29.67v94.189h-44.71zm59.71-54.59h29.681v47.09c0 7.909 9.385 8.13 15.039 7.5v39.6h-44.72zm59.719 54.59c5.654.63 15.041.41 15.041-7.5v-47.09h14.63v47.09c0 7.91 9.386 8.13 15.04 7.5v39.6h-44.711zm59.711 0c5.654.63 15.039.409 15.039-7.5v-47.09h14.641v47.09c0 7.91 9.386 8.13 15.04 7.5v39.6h-44.72zm59.72 0c5.653.63 15.03.406 15.03-7.5v-47.09h29.68v94.189h-44.71zm84.71 33.49c0 3.367-2.74 6.107-6.107 6.107h-18.893v-94.187h25z"/><path d="m291.167 197.471h-69.331c-4.143 0-7.5 3.357-7.5 7.5v37.002c0 4.143 3.357 7.5 7.5 7.5h69.331c4.143 0 7.5-3.357 7.5-7.5v-37.002c0-4.143-3.357-7.5-7.5-7.5zm-7.5 37.002h-54.331v-22.002h54.331z"/><path d="m341.211 197.471h-25c-4.143 0-7.5 3.357-7.5 7.5v63.668c0 4.143 3.357 7.5 7.5 7.5h25c4.143 0 7.5-3.357 7.5-7.5v-63.668c0-4.143-3.357-7.5-7.5-7.5zm-7.5 63.668h-10v-48.668h10z"/></g></svg>