<svg id="Capa_1" enable-background="new 0 0 511.995 511.995" height="512" viewBox="0 0 511.995 511.995" width="512" xmlns="http://www.w3.org/2000/svg"><g><path d="m150.229 155.434c6.885-6.378-2.995-17.673-10.193-11.004-34.728 32.17-54.646 77.757-54.646 125.073 0 93.989 76.466 170.455 170.455 170.455s170.455-76.466 170.455-170.455-76.466-170.455-170.455-170.455c-30.109 0-59.706 7.958-85.589 23.016-8.114 4.718-.942 17.896 7.542 12.966 23.596-13.727 50.584-20.981 78.047-20.981 85.718 0 155.455 69.737 155.455 155.455s-69.737 155.455-155.455 155.455-155.455-69.737-155.455-155.455c0-43.153 18.166-84.729 49.839-114.07z"/><path d="m511.863 458.726-8.945-46.6c-.678-3.532-3.769-6.086-7.365-6.086h-16.723l-18.774-103.67c11.203-.526 20.162-9.778 20.162-21.109v-24.849c0-16.817-15.335-21.671-29.207-21.159-13.061-74.639-68.034-135.037-139.683-155.969.523-17.4-7.835-34.929-27.905-34.929h-55.154c-19.981 0-28.464 17.521-27.906 34.929-71.65 20.933-126.623 81.331-139.684 155.969-13.785-.413-28.902 4.464-28.902 21.159v24.849c0 11.229 8.799 20.417 19.86 21.093l-18.776 103.686h-16.857c-3.623 0-6.728 2.59-7.378 6.153l-8.506 46.6c-.829 4.539 2.764 8.847 7.378 8.847h46.601c3.623 0 6.728-2.59 7.378-6.153l8.506-46.6c.829-4.539-2.764-8.847-7.378-8.847h-14.5l15.804-87.273c21.957 85.498 99.684 148.873 191.936 148.873 9.386 0 9.813-15 0-15-100.982 0-183.137-82.155-183.137-183.137s82.155-183.137 183.137-183.137c100.981 0 183.137 82.155 183.137 183.137 0 86.624-61.494 162.079-146.221 179.416-9.195 1.881-6.609 16.65 3.008 14.695 44.059-9.016 84.177-33.191 112.965-68.074 18.587-22.523 31.844-48.864 39.027-76.888l15.825 87.388h-14.633c-4.641 0-8.24 4.356-7.365 8.914l8.944 46.6c.678 3.532 3.769 6.086 7.365 6.086h46.601c4.641 0 8.24-4.356 7.365-8.914zm-464.02-6.086h-31.352l5.768-31.6h31.353zm-1.066-171.379v-24.849c0-6.241 7.313-6.659 11.869-6.159-1.196 12.35-1.232 24.809-.119 37.167-4.562.421-11.75.185-11.75-6.159zm168.586-205.731c-.857-8.019 4.084-16.176 12.906-16.176h55.154c8.822 0 13.762 8.157 12.905 16.176-26.609-5.546-54.357-5.546-80.965 0zm243.696 174.723c3.396 0 6.159 2.763 6.159 6.159v24.849c0 6.315-7.48 6.663-12.059 6.159 1.127-12.355 1.081-24.819-.115-37.167zm5.035 202.387-6.065-31.6h31.326l6.066 31.6z"/><path d="m261.483 311.72c-4.112-.383-7.776 2.657-8.156 6.781-4.708 51.138 59.107 81.388 95.673 45.245 22.085-21.831 22.293-57.561.462-79.646s-57.56-22.293-79.646-.462c-6.675 6.598 3.565 17.565 10.545 10.668 16.203-16.016 42.416-15.865 58.434.339 16.017 16.204 15.864 42.417-.339 58.434-26.755 26.447-73.656 4.407-70.191-33.202.378-4.126-2.657-7.777-6.782-8.157z"/><path d="m333.127 164.003h-154.564c-4.142 0-7.5 3.357-7.5 7.5v30c0 4.143 3.358 7.5 7.5 7.5h154.565c4.143 0 7.5-3.357 7.5-7.5v-30c-.001-4.142-3.358-7.5-7.501-7.5zm-7.5 30h-139.564v-15h139.565v15z"/></g></svg>