<svg id="Capa_1" enable-background="new 0 0 512 512" height="512" viewBox="0 0 512 512" width="512" xmlns="http://www.w3.org/2000/svg"><g><path d="m303.318 354.083c0-28.681-23.333-52.014-52.013-52.014-28.681 0-52.014 23.333-52.014 52.014 0 9.674 15 9.674 15 0 0-20.409 16.604-37.014 37.014-37.014s37.013 16.604 37.013 37.014-16.604 37.014-37.013 37.014c-10.975 0-21.583-5.013-28.565-13.474-6.158-7.461-17.726 2.087-11.568 9.549 3.32 4.022 7.174 7.455 11.405 10.264v53.661l-14.945 36.183c-1.997 4.837 1.792 10.363 6.932 10.363h73.481c5.128 0 8.922-5.544 6.932-10.363l-14.945-36.183v-53.682c14.023-9.327 23.286-25.265 23.286-43.332zm-77.542 128.56 9.317-22.558h32.423l9.317 22.558zm39.257-37.558h-27.456v-40.833c8.958 2.443 18.5 2.446 27.456-.008z"/><path d="m477.411 230.902c19.073 0 34.589-15.517 34.589-34.589 0-19.073-15.517-34.59-34.589-34.59-9.674 0-9.674 15 0 15 10.802 0 19.589 8.788 19.589 19.59s-8.788 19.589-19.589 19.589h-48.4c-25.218 0-25.26-39.179 0-39.179h15.845c9.674 0 9.674-15 0-15h-15.845c-7.268 0-14.016 2.258-19.589 6.103v-54.303l33.73 13.04c9.015 3.483 14.438-10.501 5.409-13.99l-82.212-31.782c24.243-4.661 20.79-41.7-3.978-41.7h-70.433c-27.091 0-27.137 42.089 0 42.089h33.818l68.665 26.545v165.065h-59.767v-93.899h16.7c44.565 0 44.592-69.179 0-69.179h-48.399c-44.564 0-44.592 69.179 0 69.179h16.7v53.266h-15.322c-9.674 0-9.674 15 0 15h15.322v12.089h-116.055c-4.375-5.687-10.473-9.98-17.509-12.089h85.243c9.674 0 9.674-15 0-15h-88.379v-53.266h16.7c44.565 0 44.592-69.179 0-69.179h-48.4c-44.564 0-44.592 69.179 0 69.179h16.7v66.811h-40.177c-7.268 0-14.016 2.258-19.589 6.103v-145.37l69.678-49.987h32.804c27.091 0 27.137-42.089 0-42.089h-70.433c-27.09 0-27.137 42.089 0 42.089h11.896l-79.494 57.027c-7.776 5.578.949 17.783 8.744 12.188l11.803-8.468v59.518h-85.687c-4.142 0-7.5 3.357-7.5 7.5v64.021c0 4.143 3.358 7.5 7.5 7.5h39.094v17.056h-20.673c-4.142 0-7.5 3.357-7.5 7.5v209.853c0 9.674 15 9.674 15 0v-175.263h134.533v175.263c0 9.674 15 9.674 15 0v-175.934c18.18-3.627 30.502-21.724 27.272-39.964h109.428v215.897c0 9.674 15 9.674 15 0v-175.262h134.533v175.263c0 9.674 15 9.674 15 0v-209.853c0-4.143-3.358-7.5-7.5-7.5h-15.977v-41.888zm-191.517-170.767c0-3.333 2.711-6.044 6.044-6.044h70.433c7.795 0 7.795 12.089 0 12.089h-70.433c-3.333 0-6.044-2.712-6.044-6.045zm-2.528 84.167c0-10.802 8.788-19.59 19.589-19.59h48.399c25.217 0 25.261 39.179 0 39.179h-48.399c-10.802 0-19.589-8.787-19.589-19.589zm-151.701 0c0-10.802 8.788-19.59 19.589-19.59h48.4c25.217 0 25.261 39.179 0 39.179h-48.4c-10.801 0-19.589-8.787-19.589-19.589zm2.528-108.9c0-3.333 2.711-6.045 6.044-6.045h70.433c7.795 0 7.796 12.089 0 12.089h-70.433c-3.332 0-6.044-2.711-6.044-6.044zm-119.193 156.311h78.188v49.021h-78.188zm18.421 96.077h20.673c4.142 0 7.5-3.357 7.5-7.5v-24.556h31.594v17.056h-6.188c-9.675 0-9.675 15 0 15h7.016c.977 4.402 2.792 8.491 5.275 12.09h-65.87zm142.756 12.09h-48.4c-25.217 0-25.261-39.179 0-39.179h48.4c25.217 0 25.26 39.179 0 39.179zm293.011 0h-134.533v-12.09h134.533zm-23.477-27.09h-36.29v-47.99c10.861 7.492 23.816 6.103 36.29 6.103z"/><circle cx="39.104" cy="216.224" r="8.127"/><ellipse cx="69.083" cy="216.224" rx="8.127" ry="8.127" transform="matrix(.987 -.16 .16 .987 -33.743 13.858)"/></g></svg>