<svg id="Capa_1" enable-background="new 0 0 511.995 511.995" height="512" viewBox="0 0 511.995 511.995" width="512" xmlns="http://www.w3.org/2000/svg"><g><path d="m224.925 185.537h248.581c4.142 0 7.5-3.357 7.5-7.5v-101.823c0-4.143-3.358-7.5-7.5-7.5h-193.467c-9.674 0-9.674 15 0 15h185.967v25.17c-9.03 3.119-15.536 11.699-15.536 21.776 0 10.316-16.073 10.331-16.073 0 0-29.788-46.073-29.876-46.073 0 0 10.316-16.073 10.331-16.073 0 0-29.632-46.072-29.72-46.072 0 0 10.316-16.073 10.331-16.073 0 0-29.788-46.073-29.876-46.073 0 0 10.316-16.073 10.331-16.073 0 0-10.077-6.506-18.657-15.536-21.776v-25.17h11.918c9.674 0 9.674-15 0-15h-19.418c-4.142 0-7.5 3.357-7.5 7.5v101.822c.001 4.143 3.359 7.501 7.501 7.501zm8.036-54.876c0 12.702 10.334 23.036 23.037 23.036 12.702 0 23.036-10.334 23.036-23.036 0-10.316 16.073-10.331 16.073 0 0 29.633 46.073 29.72 46.073 0 0-10.316 16.072-10.331 16.072 0 0 29.632 46.073 29.72 46.073 0 0-10.316 16.073-10.331 16.073 0 0 29.633 46.073 29.72 46.073 0 0-1.009.195-1.971.536-2.862v42.738h-233.582v-42.738c.341.89.536 1.853.536 2.862z"/><path d="m64.615 439.022c4.142 0 7.5-3.357 7.5-7.5v-64.128c6.234 0 19.701 2.324 19.701-7.5v-45.022c0-9.806-13.406-7.5-19.701-7.5v-39.094c0-9.674-15-9.674-15 0v39.094c-6.234 0-19.701-2.324-19.701 7.5v45.022c0 9.806 13.406 7.5 19.701 7.5v64.128c0 4.143 3.358 7.5 7.5 7.5zm-12.201-116.65h24.402v30.022h-24.402z"/><path d="m141.168 439.022c4.142 0 7.5-3.357 7.5-7.5v-86.64c6.234 0 19.701 2.324 19.701-7.5v-45.021c0-9.806-13.406-7.5-19.701-7.5v-16.583c0-9.674-15-9.674-15 0v16.583c-6.234 0-19.701-2.324-19.701 7.5v45.021c0 9.806 13.406 7.5 19.701 7.5v86.64c0 4.143 3.358 7.5 7.5 7.5zm-12.201-139.161h24.402v30.021h-24.402z"/><path d="m217.721 439.022c4.142 0 7.5-3.357 7.5-7.5v-56.989c6.234 0 19.701 2.324 19.701-7.5v-45.023c0-9.806-13.406-7.5-19.701-7.5v-46.232c0-9.674-15-9.674-15 0v46.232c-6.234 0-19.701-2.324-19.701 7.5v45.022c0 9.806 13.406 7.5 19.701 7.5v56.989c0 4.144 3.358 7.501 7.5 7.501zm-12.201-109.512h24.402v30.022h-24.402z"/><path d="m294.274 439.022c4.142 0 7.5-3.357 7.5-7.5v-43.383c6.234 0 19.701 2.324 19.701-7.5v-45.022c0-9.806-13.406-7.5-19.701-7.5v-59.839c0-9.674-15-9.674-15 0v59.839c-6.234 0-19.701-2.324-19.701 7.5v45.022c0 9.806 13.406 7.5 19.701 7.5v43.383c0 4.143 3.358 7.5 7.5 7.5zm-12.201-95.905h24.402v30.022h-24.402z"/><path d="m370.827 439.022c4.142 0 7.5-3.357 7.5-7.5v-110.722c6.234 0 19.701 2.324 19.701-7.5v-45.022c0-4.143-3.358-7.5-7.5-7.5h-39.402c-4.142 0-7.5 3.357-7.5 7.5v45.022c0 9.806 13.406 7.5 19.701 7.5v110.722c0 4.143 3.358 7.5 7.5 7.5zm-12.202-163.244h24.402v30.022h-24.402z"/><path d="m447.379 260.778c-4.142 0-7.5 3.357-7.5 7.5v39.094c-6.234 0-19.701-2.324-19.701 7.5v45.022c0 9.806 13.405 7.5 19.701 7.5v64.128c0 9.674 15 9.674 15 0v-64.128c6.234 0 19.701 2.324 19.701-7.5v-45.022c0-9.806-13.406-7.5-19.701-7.5v-39.094c0-4.143-3.358-7.5-7.5-7.5zm12.202 91.616h-24.402v-30.022h24.402z"/><path d="m504.495 38.24h-496.995c-4.142 0-7.5 3.357-7.5 7.5v420.516c0 4.143 3.358 7.5 7.5 7.5h326.438c9.674 0 9.674-15 0-15h-318.938v-242.746h15.989v21.413c0 4.143 3.358 7.5 7.5 7.5h435.017c4.142 0 7.5-3.357 7.5-7.5v-21.413h15.989v242.745h-126.168c-9.674 0-9.674 15 0 15h133.668c4.142 0 7.5-3.357 7.5-7.5v-420.515c0-4.143-3.358-7.5-7.5-7.5zm-38.489 191.683h-420.017v-13.913h38.328c9.675 0 9.675-15 0-15h-69.317v-147.77h481.995v147.77h-375.529c-9.675 0-9.675 15 0 15h344.54z"/><path d="m76.343 103.239c-15.945 0-28.917 12.972-28.917 28.917s12.972 28.918 28.917 28.918 28.917-12.973 28.917-28.918-12.971-28.917-28.917-28.917zm0 42.835c-7.674 0-13.917-6.243-13.917-13.918 0-7.674 6.243-13.917 13.917-13.917s13.917 6.243 13.917 13.917c.001 7.675-6.242 13.918-13.917 13.918z"/><path d="m158.264 161.074c15.945 0 28.917-12.973 28.917-28.918s-12.972-28.917-28.917-28.917-28.917 12.972-28.917 28.917 12.972 28.918 28.917 28.918zm0-42.835c7.674 0 13.917 6.243 13.917 13.917 0 7.675-6.243 13.918-13.917 13.918s-13.917-6.243-13.917-13.918c0-7.674 6.243-13.917 13.917-13.917z"/></g></svg>