<svg id="Capa_1" enable-background="new 0 0 512 512" height="512" viewBox="0 0 512 512" width="512" xmlns="http://www.w3.org/2000/svg"><g><path d="m475.129 44.258h-438.258c-20.33 0-36.871 16.54-36.871 36.871v33.998c0 9.675 15 9.675 15 0v-33.998c0-12.06 9.812-21.871 21.871-21.871h438.258c12.06 0 21.871 9.812 21.871 21.871v349.742c0 12.06-9.812 21.871-21.871 21.871h-438.258c-12.06 0-21.871-9.812-21.871-21.871v-276.872c0-9.675-15-9.675-15 0v276.872c0 20.331 16.541 36.871 36.871 36.871h438.258c20.331 0 36.871-16.54 36.871-36.871v-349.742c0-20.331-16.54-36.871-36.871-36.871z"/><path d="m277.5 256c0-37.952-30.876-68.829-68.829-68.829s-68.829 30.877-68.829 68.829 30.876 68.829 68.829 68.829 68.829-30.877 68.829-68.829zm-122.658 0c0-29.682 24.147-53.829 53.829-53.829s53.829 24.147 53.829 53.829-24.147 53.829-53.829 53.829-53.829-24.147-53.829-53.829z"/><path d="m175.983 358.368c9.043 2.877 13.813-11.337 4.56-14.291-27.915-8.905-50.159-30.808-59.504-58.588-3.084-9.17-17.301-4.386-14.217 4.783 10.861 32.288 36.715 57.745 69.161 68.096z"/><path d="m74.634 274.224c-4.068.78-6.733 4.711-5.953 8.779 11.105 57.898 57.602 103.503 115.701 113.48 9.356 1.616 12.096-13.142 2.539-14.783-51.977-8.927-93.574-49.726-103.509-101.523-.781-4.069-4.708-6.728-8.778-5.953z"/><circle cx="208.671" cy="256" r="7.5"/><path d="m380.966 215.147c-18.673-78.852-91.265-136.191-172.295-136.191-97.623 0-177.044 79.422-177.044 177.044s79.421 177.044 177.044 177.044c46.14 0 89.82-17.65 122.995-49.699 33.092-31.967 52.243-74.847 53.929-120.739.354-9.67-14.635-10.209-14.99-.551-3.211 87.471-74.341 155.989-161.934 155.989-89.351 0-162.044-72.692-162.044-162.044s72.693-162.044 162.044-162.044c77.25 0 143.147 53.925 158.657 128.962l-21.66 12.342c-18.268-18.713-50.964-5.295-50.964 20.74 0 16.385 13.329 29.714 29.714 29.714 19.202 0 33.692-18.855 28.692-37.43l82.653-47.096c2.342-1.334 3.787-3.822 3.787-6.517v-16.26h24.026c3.82 0 7.029-2.871 7.454-6.668l9.432-84.455c.488-4.382-3.044-8.332-7.454-8.332h-81.917c-4.41 0-7.943 3.95-7.454 8.332l9.432 84.455c.425 3.797 3.634 6.668 7.454 6.668h24.027v11.901zm-56.547 55.567c-8.113 0-14.714-6.601-14.714-14.714s6.601-14.714 14.714-14.714 14.714 6.601 14.714 14.714-6.601 14.714-14.714 14.714zm82.813-107.303-7.757-69.455h65.149l-7.757 69.455h-17.317v-34.728c0-9.675-15-9.675-15 0v34.728z"/><path d="m472.5 330.934c0-4.143-3.357-7.5-7.5-7.5h-65.898c-4.143 0-7.5 3.357-7.5 7.5v25c0 4.143 3.357 7.5 7.5 7.5h65.898c4.143 0 7.5-3.357 7.5-7.5zm-15 17.5h-50.898v-10h50.898z"/><path d="m465 377.933h-65.898c-4.143 0-7.5 3.357-7.5 7.5v40.111c0 4.143 3.357 7.5 7.5 7.5h65.898c4.143 0 7.5-3.357 7.5-7.5v-40.111c0-4.143-3.357-7.5-7.5-7.5zm-7.5 40.111h-50.898v-25.111h50.898z"/></g></svg>