<svg id="Capa_1" enable-background="new 0 0 512 512" height="512" viewBox="0 0 512 512" width="512" xmlns="http://www.w3.org/2000/svg"><g><path d="m504.5 104.296h-72.449v-32.524c0-4.143-3.357-7.5-7.5-7.5h-40.023c-4.143 0-7.5 3.357-7.5 7.5v32.524h-369.528c-4.143 0-7.5 3.357-7.5 7.5v328.432c0 4.143 3.357 7.5 7.5 7.5h44.5c9.675 0 9.675-15 0-15h-37v-313.432h482v313.432h-403.333c-9.675 0-9.675 15 0 15h410.833c4.143 0 7.5-3.357 7.5-7.5v-328.432c0-4.142-3.357-7.5-7.5-7.5zm-112.473 0v-25.024h25.023v25.024z"/><path d="m107.461 142.225c-39.974 0-72.495 32.521-72.495 72.495s32.521 72.494 72.495 72.494 72.495-32.521 72.495-72.494-32.521-72.495-72.495-72.495zm0 129.989c-31.703 0-57.495-25.792-57.495-57.494 0-31.703 25.792-57.495 57.495-57.495s57.495 25.792 57.495 57.495c0 31.702-25.792 57.494-57.495 57.494z"/><path d="m107.461 188.681c-14.358 0-26.039 11.681-26.039 26.039s11.681 26.039 26.039 26.039 26.039-11.68 26.039-26.039-11.681-26.039-26.039-26.039zm0 37.078c-6.087 0-11.039-4.952-11.039-11.039s4.952-11.039 11.039-11.039 11.039 4.952 11.039 11.039-4.952 11.039-11.039 11.039z"/><path d="m378.5 214.72c0 14.358 11.681 26.039 26.039 26.039s26.039-11.681 26.039-26.039-11.681-26.039-26.039-26.039-26.039 11.681-26.039 26.039zm37.078 0c0 6.087-4.952 11.039-11.039 11.039s-11.039-4.952-11.039-11.039 4.952-11.039 11.039-11.039 11.039 4.952 11.039 11.039z"/><path d="m437.175 262.061c-7.96 5.499.565 17.84 8.525 12.342 19.62-13.555 31.334-35.865 31.334-59.683 0-39.974-32.521-72.495-72.495-72.495s-72.495 32.521-72.495 72.495 32.521 72.494 72.495 72.494c9.675 0 9.675-15 0-15-31.703 0-57.495-25.792-57.495-57.494 0-31.703 25.792-57.495 57.495-57.495s57.495 25.792 57.495 57.495c0 18.89-9.293 36.587-24.859 47.341z"/><path d="m212.333 203.357c-4.143 0-7.5 3.357-7.5 7.5v17.208c0 4.143 3.357 7.5 7.5 7.5h87.334c4.143 0 7.5-3.357 7.5-7.5v-78.34c0-4.143-3.357-7.5-7.5-7.5h-87.334c-4.143 0-7.5 3.357-7.5 7.5v24.287c0 9.675 15 9.675 15 0v-16.787h72.334v63.34h-72.334v-9.708c0-4.143-3.357-7.5-7.5-7.5z"/><path d="m204.833 280.895c0 4.143 3.357 7.5 7.5 7.5h87.334c4.143 0 7.5-3.357 7.5-7.5v-25.333c0-4.143-3.357-7.5-7.5-7.5h-87.334c-4.143 0-7.5 3.357-7.5 7.5zm15-17.833h72.334v10.333h-72.334z"/><path d="m72.466 308.061h-30c-4.143 0-7.5 3.357-7.5 7.5v30c0 4.143 3.357 7.5 7.5 7.5h30c4.143 0 7.5-3.357 7.5-7.5v-30c0-4.143-3.358-7.5-7.5-7.5zm-7.5 30h-15v-15h15z"/><path d="m139.167 315.561c0-4.143-3.357-7.5-7.5-7.5h-30c-4.143 0-7.5 3.357-7.5 7.5v30c0 4.143 3.357 7.5 7.5 7.5h30c4.143 0 7.5-3.357 7.5-7.5zm-15 22.5h-15v-15h15z"/><path d="m198.367 315.561c0-4.143-3.357-7.5-7.5-7.5h-30c-4.143 0-7.5 3.357-7.5 7.5v30c0 4.143 3.357 7.5 7.5 7.5h30c4.143 0 7.5-3.357 7.5-7.5zm-15 22.5h-15v-15h15z"/><path d="m72.466 366.216h-30c-4.143 0-7.5 3.357-7.5 7.5v30c0 4.143 3.357 7.5 7.5 7.5h30c4.143 0 7.5-3.357 7.5-7.5v-30c0-4.142-3.358-7.5-7.5-7.5zm-7.5 30h-15v-15h15z"/><path d="m131.667 366.216h-30c-4.143 0-7.5 3.357-7.5 7.5v30c0 4.143 3.357 7.5 7.5 7.5h30c4.143 0 7.5-3.357 7.5-7.5v-30c0-4.142-3.357-7.5-7.5-7.5zm-7.5 30h-15v-15h15z"/><path d="m190.867 366.216h-30c-4.143 0-7.5 3.357-7.5 7.5v30c0 4.143 3.357 7.5 7.5 7.5h30c4.143 0 7.5-3.357 7.5-7.5v-30c0-4.142-3.357-7.5-7.5-7.5zm-7.5 30h-15v-15h15z"/><path d="m214.833 315.561v88.155c0 4.143 3.357 7.5 7.5 7.5h247.201c4.143 0 7.5-3.357 7.5-7.5v-88.155c0-4.143-3.357-7.5-7.5-7.5h-247.201c-4.143 0-7.5 3.357-7.5 7.5zm15 7.5h232.201v73.155h-20.867v-50.655c0-9.675-15-9.675-15 0v50.655h-20.094v-14.538c0-9.675-15-9.675-15 0v14.538h-20.093v-36.577c0-9.675-15-9.675-15 0v36.577h-20.094v-27.871c0-9.675-15-9.675-15 0v27.871h-20.093v-50.655c0-9.675-15-9.675-15 0v50.655h-20.093v-14.538c0-9.675-15-9.675-15 0v14.538h-20.867z"/></g></svg>