<svg id="Capa_1" enable-background="new 0 0 512 512" height="512" viewBox="0 0 512 512" width="512" xmlns="http://www.w3.org/2000/svg"><g><path d="m490.061 232.196c-10.636 0-21.939 7.589-21.939 21.653v15.714l-15.091-1.65v-9.584c0-4.143-3.357-7.5-7.5-7.5h-46.171c.499-4.642-2.355-9.46-7.5-9.46h-46.16c.499-4.642-2.355-9.46-7.5-9.46h-46.17c.499-4.642-2.354-9.461-7.5-9.461h-46.16c.498-4.639-2.362-9.449-7.5-9.449h-46.17c.499-4.642-2.355-9.46-7.5-9.46h-46.17c.499-4.642-2.355-9.46-7.5-9.46h-53.66c-4.143 0-7.5 3.357-7.5 7.5v23.665l-18.492-2.021v-7.206c0-27.99-43.878-27.792-43.878 0v206.678c0 28.043 43.878 28.437 43.878 0v-7.21l18.492-2.021v23.666c0 4.143 3.357 7.5 7.5 7.5h53.66c5.085 0 7.948-4.825 7.5-9.45h46.17c5.09 0 7.951-4.832 7.5-9.46h46.17c5.09 0 7.951-4.832 7.5-9.46h46.16c5.09 0 7.951-4.832 7.5-9.46h46.17c5.09 0 7.951-4.832 7.5-9.46h46.159c5.085 0 7.948-4.825 7.5-9.45h46.171c4.143 0 7.5-3.357 7.5-7.5v-9.585l15.092-1.65v15.708c0 11.631 9.711 21.47 21.647 21.934.097.004.194.006.291.006 12.098 0 21.939-9.842 21.939-21.939v-131.015c.001-14.064-11.303-21.653-21.938-21.653zm-446.183 168.198v-107.609c0-9.675-15-9.675-15 0v129.909c0 8.992-13.878 8.738-13.878 0v-206.678c0-8.445 13.878-8.644 13.878 0v43.769c0 9.675 15 9.675 15 0v-21.473l18.492 2.021v158.041zm72.152 29.234h-38.66v-220.55h38.66zm53.67-9.45h-38.67v-201.64h38.67zm53.67-9.46h-38.67v-182.72h38.67zm53.66-9.46h-38.66v-163.81h38.66zm107.329-18.92h-38.659v-6.546c0-9.675-15-9.675-15 0v16.006h-38.67v-144.89h38.67v98.837c0 9.675 15 9.675 15 0v-89.377h38.659zm53.671-9.45h-38.671v-107.06h38.671zm30.09-18.824-15.09 1.649v-72.71l15.09 1.649zm28.88 30.797c0 3.777-3.034 6.86-6.794 6.938-3.449-.207-7.084-3.007-7.084-6.938l-.001-131.012c0-8.745 13.879-8.863 13.879 0z"/><path d="m103.059 103.627 96.933 25.973-52.933 14.183c-9.25 2.477-5.367 16.974 3.883 14.488l78.027-20.907 60.078 16.098c.424 28.498 40.534 37.01 52.466 11.119 14.152-30.711-31.402-54.518-48.594-25.61l-34.973-9.371 78.973-21.161c7.332 12.328 23.451 16.879 36.186 10.363 12.411-6.351 18.12-21.542 13.029-34.518-10.663-27.176-52.716-19.894-53.096 9.666l-104.068 27.885-122.029-32.697c-9.343-2.512-13.227 11.986-3.882 14.489zm207.229 38.612c13.892-8.024 26.372 13.582 12.475 21.606-13.861 8.003-26.535-13.491-12.475-21.606zm39.425-54.144c7.807-13.526 28.933-2.286 22.016 11.759-7.35 14.924-30.343 2.659-22.016-11.759z"/></g></svg>