<svg id="Capa_1" enable-background="new 0 0 512 512" height="512" viewBox="0 0 512 512" width="512" xmlns="http://www.w3.org/2000/svg"><path d="m511.977 200.926c.009-.15.023-.3.023-.453v-34.346c0-23.074-18.772-41.846-41.846-41.846h-183.731c-23.074 0-41.846 18.771-41.846 41.846v34.346c0 .497.061 1.065.16 1.541l5.972 28.984h-29.415l5.321-27.85c.105-.493.156-1.021.156-1.524v-31.075c0-21.27-17.304-38.574-38.574-38.574h-149.623c-21.27 0-38.574 17.304-38.574 38.574v31.075c0 .506.05 1.03.156 1.524l31.05 162.505c.675 3.536 3.767 6.093 7.367 6.093h149.626c3.6 0 6.691-2.557 7.367-6.093l4.459-23.339h73.622l8.122 39.417c.718 3.485 3.787 5.986 7.346 5.986h71.267c9.652 0 9.668-15 0-15h-16.444v-164.743h68.703v164.744h-16.973c-9.652 0-9.668 15 0 15h71.795c3.559 0 6.627-2.501 7.346-5.986l37.032-179.717c.081-.36.126-.723.136-1.089zm-252.4-7.952v-19.346h237.423v19.346zm26.846-53.692h183.731c12.201 0 22.526 8.181 25.78 19.346h-235.291c3.253-11.165 13.579-19.346 25.78-19.346zm-247.849 7.693h149.623c10.377 0 19.203 6.742 22.344 16.074h-127.957c-9.652 0-9.668 15 0 15h129.188v16.075h-196.772v-16.075h34.667c9.652 0 9.668-15 0-15h-33.437c3.141-9.332 11.967-16.074 22.344-16.074zm100.112 62.149v147.622h-50.602v-147.622zm-122.117 0h56.516v147.622h-28.31zm186.322 118.19 8.211-42.973c1.811-9.48-12.919-12.312-14.733-2.814l-14.373 75.219h-28.311v-147.622h56.517l-7.837 41.021c-1.812 9.481 12.919 12.311 14.733 2.814l1.33-6.961h35.372l16.756 81.316zm126.046 45.404h-33.71l-33.947-164.744h67.657zm132.413 0h-33.71v-164.744h67.657z"/></svg>