<svg id="Capa_1" enable-background="new 0 0 512 512" height="512" viewBox="0 0 512 512" width="512" xmlns="http://www.w3.org/2000/svg"><path d="m444.829 79.595-4.314-16.063c18.398-8.38 13.741-35.645-6.086-38.128-3.45-14.53-16.936-25.404-33.01-25.404h-77.347c-16.074 0-29.559 10.873-33.01 25.402-19.814 2.472-24.5 29.745-6.084 38.131-6.477 24.159-12.074 48.199-13.59 73.277-1.746 28.876 1.496 57.118 7.407 85.339l-46.021.001c5.911-28.22 9.145-56.465 7.4-85.339-1.515-25.078-7.104-49.123-13.59-73.279 18.397-8.38 13.74-35.645-6.086-38.128-3.451-14.53-16.936-25.404-33.011-25.404h-41.703c-9.652 0-9.668 15 0 15h41.703c7.554 0 14.086 4.188 17.1 10.22h-111.546c3.014-6.032 9.545-10.22 17.1-10.22 9.652 0 9.668-15 0-15-16.074 0-29.559 10.873-33.01 25.402-19.814 2.472-24.5 29.745-6.084 38.131-13.294 49.584-18.691 98.938-8.044 149.734l33.81 161.42c.008.038.016.075.024.112 2.72 12.064 13.262 20.49 25.636 20.49h52.69c12.359 0 22.901-8.422 25.635-20.481.009-.04.018-.08.026-.121l21.267-101.537h26.192v127.45h-26.795c-2.402 0-4.659 1.15-6.07 3.095l-69.965 96.4c-3.529 4.862.062 11.905 6.07 11.905h34.295c2.402 0 4.659-1.15 6.07-3.095l21.001-28.936h85.789l21.001 28.936c1.411 1.944 3.667 3.095 6.07 3.095h34.295c2.82 0 5.401-1.581 6.682-4.094 1.281-2.512 1.044-5.529-.612-7.812l-69.965-96.4c-1.411-1.944-3.667-3.095-6.07-3.095h-26.795v-127.449h26.194l21.267 101.537c.008.038.016.075.024.112 2.72 12.064 13.262 20.49 25.636 20.49h52.69c12.359 0 22.901-8.422 25.635-20.481 2.133-9.413-12.492-12.748-14.629-3.316-1.174 5.18-5.7 8.798-11.006 8.798h-52.69c-5.295 0-9.808-3.591-10.992-8.739l-12.077-57.66c20.146.182 38.865-8.501 49.409-26.205 10.545 17.706 29.269 26.387 49.42 26.205l-5.921 28.267c-1.979 9.447 12.701 12.536 14.682 3.074l27.64-131.964c9.215-44.01 7.923-90.233-3.737-133.673zm-262.834 417.405h-15.761l59.079-81.4h15.761zm66.289-65.798v33.768h-24.508zm37.972-15.602 59.079 81.4h-15.761l-59.079-81.4zm1.536 49.37h-24.508v-33.768zm36.28-449.97h77.347c7.554 0 14.086 4.188 17.1 10.22h-111.546c3.014-6.032 9.545-10.22 17.099-10.22zm-30.369 25.22h138.076c7.65 0 6.82 10.21-.533 10.21h-137c-7.328 0-8.217-10.21-.543-10.21zm-213.932 0h138.076c7.65 0 6.821 10.21-.532 10.21h-137c-7.329 0-8.218-10.21-.544-10.21zm1.457 43.262 4.837-18.043h23.136v22.622h-7.631c-4.142 0-7.5 3.357-7.5 7.5v39.373c0 4.143 3.358 7.5 7.5 7.5h30.263c4.142 0 7.5-3.357 7.5-7.5v-39.372c0-4.143-3.358-7.5-7.5-7.5h-7.631v-22.623h49.219v22.622h-7.631c-4.142 0-7.5 3.357-7.5 7.5v39.373c0 4.143 3.358 7.5 7.5 7.5h30.263c4.142 0 7.5-3.357 7.5-7.5v-39.372c0-4.143-3.358-7.5-7.5-7.5h-7.631v-22.623h23.144c12.89 48.002 18.705 95.48 8.388 144.754l-18.578 88.697c-10.383 0-19.951-.848-28.739-7.066-10.125-7.163-16.321-19.016-16.321-31.434 0-9.652-15-9.668-15 0 0 12.419-6.195 24.271-16.321 31.434-8.775 6.208-18.358 7.066-28.731 7.066-5.247-25.049-10.493-50.098-15.74-75.147-9.818-46.867-11.847-93.537.704-140.261zm43.105 19.58v24.373h-15.263v-24.373zm64.22 0v24.373h-15.263v-24.373zm-2.395 268.483c-1.192 5.152-5.706 8.745-10.994 8.745h-52.69c-5.296 0-9.809-3.592-10.993-8.742l-12.077-57.657c20.147.182 38.866-8.5 49.411-26.205 10.544 17.705 29.268 26.387 49.418 26.205zm39.076-113.395 4.398-21 52.305-.001 4.399 21.001zm208.651-47.957-18.578 88.697c-10.384 0-19.952-.848-28.741-7.066-10.125-7.163-16.321-19.016-16.321-31.434 0-9.652-15-9.668-15 0 0 12.419-6.195 24.271-16.321 31.434-8.774 6.207-18.356 7.066-28.729 7.066l-18.578-88.699c-10.329-49.278-4.49-96.742 8.381-144.752h23.14v22.622h-7.635c-4.142 0-7.5 3.357-7.5 7.5v39.373c0 4.143 3.358 7.5 7.5 7.5h30.263c4.142 0 7.5-3.357 7.5-7.5v-39.372c0-4.143-3.358-7.5-7.5-7.5h-7.628v-22.623h49.219v22.622h-7.634c-4.142 0-7.5 3.357-7.5 7.5v39.373c0 4.143 3.358 7.5 7.5 7.5h30.263c4.142 0 7.5-3.357 7.5-7.5v-39.372c0-4.143-3.358-7.5-7.5-7.5h-7.628v-22.623h23.141c12.888 48.003 18.702 95.48 8.386 144.754zm-95.62-107.131v24.373h-15.263v-24.373zm64.219 0v24.373h-15.263v-24.373z"/></svg>