<svg id="Capa_1" enable-background="new 0 0 512.009 512.009" height="512" viewBox="0 0 512.009 512.009" width="512" xmlns="http://www.w3.org/2000/svg"><g><path d="m202.507 210.949c6.59 0 13.183-2.509 18.2-7.525l15.024-15.024c23.452-23.454-12.937-59.859-36.4-36.398l-15.023 15.023c-15.868 15.867-4.258 43.928 18.199 43.924zm-7.593-33.318 15.023-15.023c9.791-9.791 24.976 5.395 15.186 15.186l-15.023 15.022c-9.788 9.79-24.986-5.385-15.186-15.185z"/><path d="m501.017 325.674c0-35.958-22.197-69.206-55.419-83-33.207-13.788-72.484-5.889-97.876 19.502l-194.383 194.384c-26.807 26.807-71.035 29.018-100.342 4.935-33.68-27.676-36.275-79.879-5.439-110.714l9.175-9.176c5.483 5.483 10.665 11.529 17.742 14.988 12.642 6.18 28.264 4.389 39.047-4.729l191.727-162.03c16.668-4.692 29.974-14.301 42.05-26.377 6.341 3.506 13.743-3.757 10.186-10.187 9.672-9.672 18.108-19.792 23.471-32.556 3.738-8.898-10.083-14.723-13.828-5.811-4.562 10.856-11.825 19.334-20.04 27.548l-101.809-101.805c15.342-15.342 33.156-25.646 55.464-25.646 19.228 0 37.305 7.487 50.899 21.082 13.602 13.603 21.092 31.682 21.092 50.908 0 9.652 15 9.668 15 0 0-23.233-9.051-45.079-25.484-61.515-16.429-16.427-38.273-25.475-61.507-25.475-26.399 0-48.055 12.024-66.281 30.25-6.43-3.558-13.746 3.757-10.187 10.187-12.074 12.073-21.679 25.368-26.365 42.035l-162.041 191.739c-8.561 10.123-10.725 24.665-5.715 36.906 3.329 8.135 9.903 13.814 15.971 19.881l-9.174 9.175c-34.614 34.615-34.61 92.384 0 126.994s92.379 34.613 126.994 0l194.385-194.385c30.835-30.835 83.037-28.24 110.714 5.44 24.083 29.307 21.873 73.535-4.935 100.341l-31.074 31.074c-7.844-8.313-21.289-8.8-29.453-.638l-43.067 43.067c-8.163 8.164-7.675 21.61.638 29.453l-17.676 17.676c-6.814 6.816 3.765 17.446 10.607 10.607l17.676-17.676c7.819 8.313 21.29 8.799 29.453.638l43.067-43.067c8.163-8.164 7.675-21.61-.638-29.453l31.074-31.074c16.96-16.96 26.301-39.511 26.301-63.496zm-375.03-3.987-59.944-59.944 55.471-65.645 13.362 13.363c6.81 6.808 17.426-3.788 10.606-10.606l-14.253-14.254 73.917-87.457 85.439 85.439-87.464 73.909-35.058-35.058c-6.81-6.808-17.425 3.787-10.606 10.607l34.167 34.167zm104.723-266.472 3.962-3.962 101.807 101.807c-9.497 9.497-19.688 17.351-32.653 21.548l-90.696-90.696c3.479-10.768 9.504-20.621 17.58-28.697zm-183.385 228.68 9.003-10.654 58.163 58.163-10.655 9.005c-8.229 6.957-20.647 6.439-28.269-1.183l-27.062-27.062c-7.748-7.749-8.257-19.901-1.18-28.269zm386.348 155.196-43.067 43.067c-2.073 2.075-5.528 2.075-7.601 0l-11.883-11.883c-2.075-2.073-2.075-5.528 0-7.601l43.067-43.067c2.073-2.075 5.528-2.075 7.601 0l11.883 11.883c2.074 2.073 2.074 5.528 0 7.601z"/></g></svg>