<svg id="Capa_1" enable-background="new 0 0 511.928 511.928" height="512" viewBox="0 0 511.928 511.928" width="512" xmlns="http://www.w3.org/2000/svg"><g><path d="m476.291 111.057c16.888 0 32.039-8.286 35.193-26.224 3.263-18.557-11.909-35.981-30.616-35.981h-26.83c-2.51-16.573-13.666-30.862-28.967-37.61-18.387-8.11-36.297-1.43-54.51 3.599-37.228 10.279-75.723 20.907-114.591 20.907-38.861 0-77.366-10.63-114.604-20.91-7.271-2.007-14.791-4.083-22.197-6.048-27.826-7.381-56.949 11.55-61.267 40.063h-26.83c-19.169 0-34.068 17.972-30.558 36.803 3.286 17.629 18.63 25.402 35.135 25.402v262.547c0 9.652 15 9.668 15 0v-34.333h26.596v88.928h-26.595v-17.737c0-9.652-15-9.668-15 0v17.762c-15.159.523-27.332 13.01-27.332 28.295v40.722c0 4.143 3.357 7.5 7.5 7.5h96.259c4.143 0 7.5-3.357 7.5-7.5v-40.722c0-15.284-12.172-27.771-27.331-28.295v-317.168h29.781l59.245 59.245c-35.478 24.03-58.84 64.658-58.84 110.641 0 73.634 59.905 133.539 133.539 133.539s133.539-59.905 133.539-133.539c0-45.983-23.363-86.611-58.84-110.641l59.245-59.245h29.781v317.167c-15.159.524-27.331 13.011-27.331 28.295v40.722c0 4.143 3.357 7.5 7.5 7.5h96.259c4.143 0 7.5-3.357 7.5-7.5v-40.722c0-15.285-12.173-27.772-27.332-28.295v-317.167zm-425.641 213.214v-213.21h26.596v213.21zm53.927 132.248v33.222h-81.259v-33.222c0-7.345 5.976-13.32 13.32-13.32h54.618c7.345 0 13.321 5.975 13.321 13.32zm269.932-175.576c0 65.362-53.177 118.539-118.539 118.539s-118.539-53.177-118.539-118.539 53.177-118.539 118.539-118.539 118.539 53.177 118.539 118.539zm-57.137-118.559c-38.118-19.822-84.686-19.822-122.804 0l-51.326-51.326h20.396c9.652 0 9.668-15 0-15h-132.565c-20.678 0-20.715-32.205 0-32.205h33.768c4.143 0 7.5-3.357 7.5-7.5 0-22.097 21.595-38.737 42.982-33.064 7.334 1.946 14.816 4.012 22.052 6.009 38.201 10.546 77.702 21.451 118.596 21.451 40.899 0 80.392-10.903 118.582-21.447 14.556-4.017 30.171-10.853 44.944-4.131 12.143 5.526 20.104 17.846 20.104 31.183 0 4.143 3.357 7.5 7.5 7.5h33.768c20.772 0 20.531 32.205 0 32.205h-277.899c-9.652 0-9.668 15 0 15h165.729zm143.919 161.887h-26.596v-213.21h26.596zm-26.596 15h26.596v88.928h-26.596zm53.928 117.248v33.222h-81.259v-33.222c0-7.345 5.976-13.32 13.32-13.32h54.618c7.345 0 13.321 5.975 13.321 13.32z"/><path d="m151.667 280.943c0 57.514 46.79 104.304 104.304 104.304 42.924 0 82.407-27.267 97.589-67.411 3.415-9.027-10.61-14.351-14.029-5.307-13.058 34.522-46.638 57.718-83.56 57.718-49.242 0-89.304-40.062-89.304-89.304s40.062-89.304 89.304-89.304 89.304 40.062 89.304 89.304c0 9.652 15 9.668 15 0 0-57.514-46.79-104.304-104.304-104.304s-104.304 46.79-104.304 104.304z"/><path d="m223.459 280.943c0 17.927 14.585 32.511 32.512 32.511s32.512-14.584 32.512-32.511-14.585-32.512-32.512-32.512-32.512 14.585-32.512 32.512zm50.023 0c0 9.655-7.855 17.511-17.512 17.511-9.656 0-17.512-7.855-17.512-17.511s7.855-17.512 17.512-17.512 17.512 7.856 17.512 17.512z"/></g></svg>