<svg id="Capa_1" enable-background="new 0 0 511.339 511.339" height="512" viewBox="0 0 511.339 511.339" width="512" xmlns="http://www.w3.org/2000/svg"><path d="m491.375 397.34v-47.457c0-9.652-15-9.668-15 0v47.015h-13.287v-277.459h13.287v195.411c0 9.652 15 9.668 15 0v-196.429c30.8-8.496 24.141-55.162-7.502-55.162h-20.785c0-5.625.646-14.143-7.5-14.143h-387.848c-8.146 0-7.5 8.518-7.5 14.143h-32.187c-18.636 0-32.351 18.648-26.811 36.428 4.369 14.024 17.016 19.752 30.71 19.752v277.901c-7.441 1.717-13.012 8.382-13.012 16.337v31.766c0 9.252 7.527 16.779 16.779 16.779h35.752c9.253 0 16.78-7.527 16.78-16.779v-31.766c0-7.955-5.57-14.62-13.012-16.337v-277.901h15.239v223.145c0 31.812 44.215 32.086 44.215 0v-223.145h15.416v200.57c0 31.64 44.215 32.157 44.215 0v-200.57h15.416v71.563c0 9.675 15 9.675 15 0v-71.563h14.215v177.995c0 12.526-14.215 12.515-14.215 0v-73.804c0-9.675-15-9.675-15 0v73.805c0 31.641 44.215 32.158 44.215 0v-177.996h15.416v155.421c0 31.641 44.215 32.158 44.215 0v-155.421h15.416v132.847c0 31.641 44.215 32.157 44.215 0v-132.847h15.416v110.272c0 31.812 44.215 32.086 44.215 0v-110.272h15.239v277.901c-7.442 1.717-13.013 8.382-13.013 16.337v31.766c0 9.252 7.527 16.779 16.78 16.779h35.752c9.253 0 16.78-7.527 16.78-16.779v-31.766c.002-7.955-5.569-14.62-13.011-16.337zm-43.292-319.94h-40.402v-13.283h40.407zm-55.402 0h-40.406v-13.283h40.406zm-55.407 0h-40.407v-13.283h40.407zm-55.407 0h-40.407v-13.283h40.407zm-55.407 0h-40.406v-13.283h40.406zm-55.406 0h-40.407v-13.283h40.407zm-55.408-13.283v13.283h-40.403l-.003-13.283zm-100.683 27.232c0-7.11 5.976-13.09 13.09-13.09h32.187c0 5.625-.647 14.145 7.5 14.145h387.848c8.147 0 7.5-8.519 7.5-14.145h20.785c16.816 0 16.922 26.176.002 26.176l-455.822.004c-7.218 0-13.09-5.872-13.09-13.09zm58.289 354.094c0 .981-.799 1.779-1.78 1.779h-35.752c-.981 0-1.779-.798-1.779-1.779v-31.766c0-.981.798-1.779 1.779-1.779h35.752c.981 0 1.78.798 1.78 1.779zm-13.012-48.545h-13.288v-277.459h13.288zm59.454-54.314c0 12.378-14.215 12.073-14.215 0v-223.145h14.215zm59.631-22.575c0 12.475-14.215 12.232-14.215 0v-200.57h14.215zm119.262-45.149c0 12.526-14.215 12.515-14.215 0v-155.421h14.215zm59.631-22.574c0 12.524-14.215 12.516-14.215 0v-132.847h14.215zm59.631-22.574c0 12.378-14.215 12.072-14.215 0v-110.273h14.215zm71.539 215.731c0 .981-.799 1.779-1.78 1.779h-35.752c-.981 0-1.78-.798-1.78-1.779v-31.766c0-.981.799-1.779 1.78-1.779h35.752c.981 0 1.78.798 1.78 1.779z"/></svg>