<svg id="Capa_1" enable-background="new 0 0 512 512" height="512" viewBox="0 0 512 512" width="512" xmlns="http://www.w3.org/2000/svg"><g><path d="m438.838 135.57c0-9.275-14.352-9.922-14.975-.5h-335.701v-33.48h335.677c-.462 10.648 15 12.461 15 1.736v-95.826c0-4.143-3.358-7.5-7.5-7.5h-273.339c-9.653 0-9.719 15 0 15h265.838v71.59h-16.668v-48.11c0-4.143-3.358-7.5-7.5-7.5h-287.34c-4.142 0-7.5 3.357-7.5 7.5v48.11h-16.668v-71.59h32.149c9.653 0 9.719-15 0-15h-39.649c-4.142 0-7.5 3.357-7.5 7.5v469.081c0 19.53 15.889 35.419 35.419 35.419h294.839c19.53 0 35.419-15.889 35.419-35.419v-341.011zm-46.668-48.98h-16.93v-40.61h16.93zm-31.93 0h-16.93v-40.61h16.93zm-31.93 0h-16.92v-40.61h16.92zm-31.92 0h-16.93v-40.61h16.93zm-31.93 0h-16.92v-40.61h16.92zm-31.92 0h-16.93v-40.61h16.93zm-31.93 0h-16.92v-40.61h16.92zm-31.92 0h-16.93v-40.61h16.93zm-48.86-40.61h16.93v40.61h-16.93zm255.41 104.09h16.93v60.63c0 10.833-16.93 10.961-16.93 0zm-15 80.63c0 10.798-16.93 10.942-16.93 0v-80.63h16.93zm-31.93 20c0 10.795-16.92 10.943-16.92 0v-100.63h16.92zm-31.92 20c0 10.798-16.93 10.942-16.93 0v-120.63h16.93zm-31.93 20c0 10.943-16.92 10.796-16.92 0v-140.63h16.92zm-31.92-20c0 10.942-16.93 10.798-16.93 0v-120.63h16.93zm-31.93-20c0 10.943-16.92 10.795-16.92 0v-100.63h16.92zm-31.92-20c0 10.942-16.93 10.798-16.93 0v-80.63h16.93zm-31.93-80.63v60.63c0 10.961-16.93 10.833-16.93 0v-60.63zm266.659 346.93h-294.838c-11.259 0-20.419-9.16-20.419-20.419v-326.511h16.668v60.63c0 16.088 17.053 27.725 32.012 21.852 1.242 15.28 17.655 25.604 31.93 19.998.893 10.998 9.651 20.015 20.707 21.428-5.25 6.173-9.645 13.059-13.003 20.447-3.992 8.781 9.625 15.076 13.655 6.207 3.249-7.146 7.671-13.724 13.026-19.458 5.42 10.558 18.358 15.738 29.465 11.375 2.26 27.854 44.562 28.006 46.758.001 11.119 4.367 24.069-.83 29.479-11.41 20.56 21.881 25.237 55.373 11.624 82.098-12.235 24.021-37.513 39.6-64.483 39.6-39.875 0-72.315-32.44-72.315-72.314 0-9.653-15-9.719-15 0 0 48.146 39.169 87.314 87.315 87.314 31.622 0 61.384-17.722 76.594-45.425 17.176-31.282 13.199-71.272-10.025-98.443 11.033-1.434 19.768-10.44 20.659-21.422 14.272 5.606 30.688-4.714 31.93-19.997 2.649 1.04 5.529 1.618 8.542 1.618.055 0 .11-.001.165-.002 12.85-.282 23.305-10.811 23.305-23.468v-60.63h16.668v326.511c0 11.26-9.159 20.42-20.419 20.42z"/><circle cx="256" cy="118.333" r="7.5"/><circle cx="176.185" cy="118.333" r="7.5"/><circle cx="335.815" cy="118.333" r="7.5"/><path d="m300.778 450.501h-89.557c-9.653 0-9.719 15 0 15h89.557c9.654 0 9.719-15 0-15z"/></g></svg>