<svg id="Capa_1" enable-background="new 0 0 511.762 511.762" height="512" viewBox="0 0 511.762 511.762" width="512" xmlns="http://www.w3.org/2000/svg"><path d="m447.999 41.155c4.142 0 7.5-3.357 7.5-7.5v-26.155c0-4.143-3.358-7.5-7.5-7.5h-384.236c-4.142 0-7.5 3.357-7.5 7.5v26.155c0 4.143 3.358 7.5 7.5 7.5h19.177v133.255h-19.175c-9.653 0-9.719 15 0 15h19.175v227.556h-19.177c-4.142 0-7.5 3.357-7.5 7.5v50.78c0 4.143 3.358 7.5 7.5 7.5h19.177v21.751c0 9.653 15 9.719 15 0v-21.751h315.881v21.751c0 9.653 15 9.719 15 0v-21.751h19.177c4.142 0 7.5-3.357 7.5-7.5v-10.245c0-5.141-5.23-8.69-10.009-7.02-4.327 1.512-5.15 5.702-4.991 9.765h-369.235v-35.78h369.235c-.73 10.303 15 11.321 15 1.035v-8.535c0-4.143-3.358-7.5-7.5-7.5h-19.177v-162.638h19.174c9.653 0 9.719-15 0-15h-19.174v-198.173zm-350.059 0h65.94c9.653 0 9.719-15 0-15h-92.617v-11.155h369.235v11.155h-239.764c-4.142 0-7.5 3.357-7.5 7.5v140.755h-34.045v-77.546c0-4.143-3.358-7.5-7.5-7.5h-32.254c-4.142 0-7.5 3.357-7.5 7.5v77.546h-13.995zm269.091 257.303c0 8.396 5.192 15.603 12.534 18.577v99.928h-26.786v-246.688h14.252zm-29.252 118.508h-19.251v-162.638h19.251zm-193.591-154.278c0 12.596 8.495 23.244 20.056 26.519v127.756h-37.311v-312.599h17.254v158.324zm27.557 12.556c-6.923 0-12.556-5.633-12.556-12.556v-73.278h34.045v227.556h-13.989v-134.222c0-4.142-3.358-7.5-7.5-7.5zm36.489-85.834h13.991v141.121c0 9.653 15 9.719 15 0v-226.167h17.255v158.324c0 12.596 8.494 23.244 20.056 26.519v127.756h-37.311v-51.964c0-9.653-15-9.719-15 0v51.967h-13.991zm73.802 85.834c-6.923 0-12.556-5.633-12.556-12.556v-73.278h34.048v227.556h-13.992v-134.222c0-4.142-3.358-7.5-7.5-7.5zm21.492-100.834h-34.048v-77.546c0-4.143-3.358-7.5-7.5-7.5h-32.255c-4.142 0-7.5 3.357-7.5 7.5v77.546h-13.991v-133.255h95.294zm-205.588 15h13.994v227.556h-13.994zm315.881 227.556h-19.257v-105.975c0-4.143-3.358-7.5-7.5-7.5-2.775 0-5.034-2.258-5.034-5.033v-44.13h31.791zm0-177.638h-31.791v-76.553c0-4.143-3.358-7.5-7.5-7.5h-29.252c-4.142 0-7.5 3.357-7.5 7.5v76.553h-19.251v-198.173h95.293v198.173z"/></svg>