<svg id="Capa_1" enable-background="new 0 0 512 512" height="512" viewBox="0 0 512 512" width="512" xmlns="http://www.w3.org/2000/svg"><path d="m505.063 164.691c-12.308-.926-24.615-1.853-36.923-2.779v-21.592c0-9.826-7.994-17.82-17.819-17.82h-23.36c-9.826 0-17.82 7.994-17.82 17.82v17.151c-60.896-4.583-121.791-9.166-182.686-13.75-39.362-2.97-78.532 3.106-117.583 7.133v-16.534c0-9.826-7.994-17.82-17.82-17.82h-23.362c-9.826 0-17.82 7.994-17.82 17.82v19.644h-42.37c-4.142 0-7.5 3.357-7.5 7.5v189.064c0 4.143 3.358 7.5 7.5 7.5h42.37v19.651c0 9.826 7.994 17.82 17.82 17.82h23.36c9.826 0 17.82-7.994 17.82-17.82v-16.457c31.75 3.281 63.458 7.853 95.442 7.853 33.762 0 67.764-4.232 101.405-6.766 9.603-.722 8.491-15.683-1.127-14.957l-79.263 5.969c-31.219 2.344-63.071-1.244-93.875-4.716-22.128-2.494-44.302-4.983-66.583-5.484v-12.668h142.834c0 1.947-.187 3.976.589 5.812 1.162 2.747 3.928 4.58 6.911 4.58 2.982 0 5.749-1.833 6.911-4.58.777-1.837.589-3.864.589-5.812h208.437v7.369c-31.06 2.339-62.119 4.677-93.179 7.017-9.601.722-8.502 15.694 1.127 14.957 23.351-1.758 46.701-3.516 70.052-5.274v17.158c0 9.826 7.994 17.82 17.82 17.82h23.36c9.825 0 17.819-7.994 17.819-17.82v-21.601c12.308-.927 24.615-1.854 36.923-2.78 3.913-.294 6.938-3.555 6.938-7.479v-167.65c0-3.924-3.024-7.185-6.937-7.479zm-8.063 42.575h-25.305v-30.043l25.305 1.905zm0 82.461h-25.305v-67.461h25.305zm-243.802-52.305c-3.244 0-6.199 2.17-7.163 5.27-.568 1.826-.337 3.916-.337 5.805h-180.828v-18.479h142.834c0 1.903-.223 3.98.396 5.809 1.019 3.013 3.923 5.095 7.104 5.095 3.112 0 5.974-1.997 7.045-4.921.687-1.876.455-4.019.455-5.983h208.436v18.479h-170.443c0-1.889.231-3.978-.337-5.805-.964-3.1-3.918-5.27-7.162-5.27zm-75.988-29.809c3.244 0 6.199-2.17 7.163-5.27.568-1.826.337-3.916.337-5.805h246.43v18.479h-208.436c0-1.903.223-3.98-.396-5.809-1.019-3.013-3.923-5.095-7.104-5.095-3.112 0-5.974 1.997-7.045 4.921-.687 1.876-.455 4.019-.455 5.983h-142.834v-18.479h104.84c0 1.889-.231 3.978.337 5.805.965 3.1 3.919 5.27 7.163 5.27zm268.93-32.313 10.556.794v159.802c-3.519.266-7.037.531-10.556.796zm-22-34.98c0-1.555 1.266-2.82 2.82-2.82h23.36c1.555 0 2.819 1.266 2.819 2.82v20.463c-9.667-.728-19.333-1.455-29-2.183v-18.28zm-292.029 23.072c30.587-3.466 62.217-7.046 93.216-4.713 63.562 4.785 205.813 15.493 205.813 15.493v7.367h-246.43c0-1.916.215-3.982-.455-5.812-1.07-2.923-3.933-4.921-7.045-4.921s-5.975 1.998-7.045 4.921c-.67 1.829-.455 3.897-.455 5.812h-104.84v-12.647c22.504-.44 44.897-2.968 67.241-5.5zm-64.421-31.892h23.36c1.555 0 2.82 1.266 2.82 2.82v17.952c-9.648.815-19.318 1.411-29 1.609v-19.561c0-1.554 1.265-2.82 2.82-2.82zm-52.69 37.464h34.87v87.013c0 4.163 3.495 7.624 7.674 7.519h188.153c0 1.916-.215 3.982.455 5.812 1.07 2.923 3.933 4.921 7.045 4.921s5.974-1.998 7.044-4.921c.67-1.829.455-3.897.455-5.812h170.444v18.479h-89.344c0-1.94.246-4.099-.337-5.975-.964-3.1-3.918-5.27-7.163-5.27s-6.199 2.17-7.163 5.27c-.584 1.876-.337 4.034-.337 5.975h-269.348c-4.109-.038-7.577 3.435-7.577 7.519v53.534h-34.871zm78.87 208.716c0 1.555-1.265 2.82-2.82 2.82h-23.36c-1.555 0-2.82-1.266-2.82-2.82v-19.547c9.682.226 19.351.839 29 1.663zm128.834-62.227c0-1.991.262-4.22-.337-6.145-.964-3.1-3.918-5.27-7.163-5.27s-6.199 2.17-7.163 5.27c-.599 1.926-.337 4.154-.337 6.145h-142.834v-18.479h261.926c0 1.934-.201 3.977.522 5.813 1.118 2.837 3.928 4.751 6.978 4.751 2.982 0 5.749-1.832 6.911-4.58.796-1.883.589-3.986.589-5.983h89.344v18.479h-208.436zm230.436 56.227c0 1.555-1.265 2.82-2.819 2.82h-23.36c-1.555 0-2.82-1.266-2.82-2.82v-18.285c9.667-.729 19.333-1.458 29-2.186v20.471zm18.555-36.911v-30.042h25.305v28.137c-8.435.634-16.87 1.27-25.305 1.905z"/></svg>