<svg id="Capa_1" enable-background="new 0 0 512 512" height="512" viewBox="0 0 512 512" width="512" xmlns="http://www.w3.org/2000/svg"><g><path d="m491.489 23.114c-10.017 0-20.662 7.427-20.662 21.188v270.904h-409.933c-33.135.001-60.894 27.76-60.894 60.895s27.759 60.893 60.894 60.893h83.174v14.252c0 8.498 6.913 15.411 15.411 15.411h13.841c8.498 0 15.411-6.913 15.411-15.411v-14.252h38.128c9.63 0 9.644-15 0-15h-52.96v-41.011h261.389v41.011h-170.955c-9.63 0-9.644 15 0 15h11.35v36.143c0 8.685 7.065 15.75 15.75 15.75h26.317c8.685 0 15.75-7.065 15.75-15.75v-36.143h86.956v14.252c0 8.498 6.913 15.411 15.411 15.411h13.841c8.498 0 15.411-6.913 15.411-15.411v-14.252h13.208c4.143 0 7.5-3.357 7.5-7.5v-37.779h18.673c4.143 0 7.5-3.357 7.5-7.5v-339.912c0-13.91-10.318-21.189-20.511-21.189zm-368.13 372.706h-62.465c-25.385 0-25.435-39.44 0-39.44h62.466v39.44zm-108.359-19.72c0-25.306 20.588-45.893 45.894-45.893h62.466v11.173h-62.466c-18.881 0-34.721 15.84-34.721 34.721 0 18.88 15.839 34.72 34.721 34.72h62.466v11.173h-62.466c-25.306-.001-45.894-20.589-45.894-45.894zm158.73 75.145c0 .227-.185.411-.411.411h-13.841c-.227 0-.411-.185-.411-.411v-14.252h14.663zm144.77 21.891c0 .413-.337.75-.75.75h-26.317c-.413 0-.75-.337-.75-.75v-36.143h27.817zm131.619-21.891c0 .227-.185.411-.411.411h-13.841c-.227 0-.411-.185-.411-.411v-14.252h14.663zm46.881-74.531h-18.673c-4.143 0-7.5 3.357-7.5 7.5v.001.001 37.778h-20.54v-48.511c0-4.143-3.357-7.5-7.5-7.5h-276.389c-4.143 0-7.5 3.357-7.5 7.5v48.511h-20.539v-91.786h332.468v18.68c0 9.63 15 9.644 15 0v-304.585c0-7.975 11.173-8.182 11.173 0z"/><path d="m219.007 401.488c0 4.337 3.516 7.852 7.852 7.852s7.852-3.515 7.852-7.852c0-4.336-3.516-7.852-7.852-7.852-4.337 0-7.852 3.516-7.852 7.852z"/><path d="m286.534 401.488c0-4.336-3.516-7.852-7.852-7.852s-7.852 3.515-7.852 7.852 3.515 7.852 7.852 7.852c4.336 0 7.852-3.515 7.852-7.852z"/><path d="m338.356 401.488c0-4.336-3.515-7.852-7.852-7.852s-7.852 3.515-7.852 7.852 3.515 7.852 7.852 7.852 7.852-3.515 7.852-7.852z"/><path d="m390.179 401.488c0-4.336-3.516-7.852-7.852-7.852-4.337 0-7.852 3.515-7.852 7.852s3.516 7.852 7.852 7.852c4.337 0 7.852-3.515 7.852-7.852z"/></g></svg>