<svg id="Capa_1" enable-background="new 0 0 512 512" height="512" viewBox="0 0 512 512" width="512" xmlns="http://www.w3.org/2000/svg"><g><path d="m414.963 0h-317.926c-18.727 0-33.964 15.235-33.964 33.963v101.036c0 9.63 15 9.644 15 0v-101.036c0-10.456 8.507-18.963 18.964-18.963h317.926c10.457 0 18.964 8.507 18.964 18.963v444.074c0 10.456-8.507 18.963-18.964 18.963h-317.926c-10.457 0-18.964-8.507-18.964-18.963v-304.036c0-9.63-15-9.644-15 0v304.036c0 18.728 15.237 33.963 33.964 33.963h317.926c18.728 0 33.964-15.235 33.964-33.963v-444.074c0-18.728-15.237-33.963-33.964-33.963z"/><path d="m136.656 424.978-9.166 9.166c-6.712 6.714 3.737 17.473 10.607 10.607l9.166-9.166c60.865 55.504 156.609 55.504 217.474 0l9.166 9.166c6.767 6.762 17.397-3.815 10.607-10.607l-9.166-9.166c47.026-51.568 55.469-129.865 20.168-190.199-4.863-8.312-17.817-.75-12.947 7.574 13.061 22.322 19.964 47.872 19.964 73.888 0 80.797-65.732 146.529-146.529 146.529s-146.529-65.732-146.529-146.529 65.732-146.529 146.529-146.529c39.14 0 75.936 15.242 103.611 42.918 2.844 2.844 7.758 2.85 10.607 0l14.292-14.292c6.809-6.811-3.786-17.424-10.607-10.607l-9.113 9.113c-60.823-55.539-156.699-55.418-217.528.054l-9.166-9.166c-6.812-6.807-17.426 3.787-10.607 10.607l9.166 9.166c-26.192 28.721-42.185 66.896-42.185 108.737s15.994 80.015 42.186 108.736z"/><path d="m256 187.71c-70.872 0-128.531 57.659-128.531 128.531s57.659 128.531 128.531 128.531 128.531-57.659 128.531-128.531-57.659-128.531-128.531-128.531zm0 242.062c-62.602 0-113.531-50.93-113.531-113.531s50.929-113.531 113.531-113.531 113.531 50.93 113.531 113.531-50.929 113.531-113.531 113.531z"/><path d="m256 254.28c-17.248 0-33.852 7.274-45.552 19.958-6.53 7.078 4.487 17.259 11.025 10.17 8.869-9.614 21.453-15.128 34.526-15.128 25.895 0 46.961 21.066 46.961 46.961s-21.065 46.962-46.96 46.962-46.961-21.067-46.961-46.962c0-9.63-15-9.644-15 0 0 34.166 27.796 61.962 61.961 61.962s61.961-27.796 61.961-61.962c0-34.165-27.796-61.961-61.961-61.961z"/><path d="m303.535 87.416c0-26.211-21.324-47.535-47.535-47.535s-47.535 21.324-47.535 47.535 21.324 47.535 47.535 47.535 47.535-21.324 47.535-47.535zm-80.07 0c0-17.94 14.595-32.535 32.535-32.535s32.535 14.595 32.535 32.535-14.595 32.535-32.535 32.535-32.535-14.595-32.535-32.535z"/><path d="m399.53 112.452v-50.072c0-28.964-44.998-29.05-44.998 0v50.072c0 28.964 44.998 29.05 44.998 0zm-29.998 0v-50.072c0-9.626 14.998-9.641 14.998 0v50.072c0 9.626-14.998 9.641-14.998 0z"/><path d="m157.468 112.452v-50.072c0-28.964-44.998-29.05-44.998 0v50.072c0 28.964 44.998 29.05 44.998 0zm-29.998 0v-50.072c0-9.626 14.998-9.641 14.998 0v50.072c0 9.626-14.998 9.641-14.998 0z"/></g></svg>